<svg width="162" height="162" viewBox="0 0 162 162" fill="none" xmlns="http://www.w3.org/2000/svg">
<path d="M141.756 113.389C147.677 116.545 155.133 114.321 157.369 107.995C160.706 98.5544 162.276 88.5429 161.96 78.465C161.517 64.3229 157.378 50.5434 149.954 38.4986C142.53 26.4537 132.08 16.5637 119.645 9.81325C107.21 3.06276 93.2237 -0.312717 79.0786 0.0228975C64.9336 0.358512 51.1231 4.39351 39.0224 11.7261C26.9216 19.0588 16.9527 29.4333 10.1081 41.8166C3.26356 54.2 -0.217831 68.1603 0.0105566 82.3075C0.173304 92.389 2.21592 102.315 5.99678 111.586C8.5306 117.8 16.0833 119.668 21.8484 116.234C27.6134 112.8 29.3602 105.357 27.2307 98.9934C25.3947 93.5065 24.4015 87.7481 24.3074 81.9153C24.1475 72.0122 26.5845 62.24 31.3757 53.5717C36.1669 44.9033 43.1451 37.6412 51.6156 32.5083C60.0862 27.3755 69.7535 24.551 79.655 24.316C89.5566 24.0811 99.347 26.4439 108.051 31.1693C116.756 35.8946 124.071 42.8176 129.268 51.249C134.464 59.6804 137.362 69.326 137.672 79.2255C137.855 85.0563 137.136 90.8553 135.562 96.423C133.737 102.88 135.835 110.232 141.756 113.389Z" fill="#E0E9FA"/>
<path d="M44.5781 22.5726C41.0283 16.8781 33.4596 15.0763 28.3596 19.4372C20.7496 25.9443 14.3845 33.8297 9.61888 42.7152C2.93131 55.1841 -0.37344 69.1872 0.0336516 83.3304C0.440743 97.4736 4.54548 111.264 11.9392 123.327C19.3329 135.391 29.7576 145.307 42.1754 152.089C54.5932 158.871 68.5709 162.282 82.7168 161.982C96.8627 161.682 110.683 157.682 122.802 150.38C134.922 143.078 144.917 132.728 151.793 120.362C156.692 111.55 159.886 101.933 161.248 92.013C162.16 85.3651 156.553 79.9712 149.844 80.0625C143.134 80.1539 137.9 85.7263 136.562 92.3019C135.409 97.9717 133.39 103.455 130.555 108.554C125.742 117.21 118.745 124.454 110.262 129.566C101.778 134.677 92.1039 137.477 82.2018 137.687C72.2996 137.897 62.5153 135.51 53.8228 130.762C45.1303 126.015 37.833 119.073 32.6574 110.629C27.4819 102.184 24.6085 92.5315 24.3236 82.6313C24.0386 72.731 26.3519 62.9288 31.0332 54.2006C33.7905 49.0598 37.3126 44.3971 41.4594 40.3622C46.2688 35.6827 48.1278 28.267 44.5781 22.5726Z" fill="#0F55D5"/>
</svg>
