<svg width="30" height="30" viewBox="0 0 30 30" fill="none" xmlns="http://www.w3.org/2000/svg">
<path d="M24.0597 9.78345C24.2111 9.93481 24.2969 10.1392 24.2969 10.3536V25.9116C24.2969 26.3582 23.9361 26.7189 23.4896 26.7189H7.34373C6.8972 26.7189 6.53644 26.3582 6.53644 25.9116V4.92204C6.53644 4.4755 6.8972 4.11475 7.34373 4.11475H18.058C18.2724 4.11475 18.4793 4.20052 18.6307 4.35189L24.0597 9.78345ZM22.435 10.7244L17.6872 5.97656V10.7244H22.435ZM10.5729 14.66C10.5194 14.66 10.468 14.6813 10.4302 14.7191C10.3923 14.757 10.3711 14.8083 10.3711 14.8618V16.0728C10.3711 16.1263 10.3923 16.1776 10.4302 16.2155C10.468 16.2533 10.5194 16.2746 10.5729 16.2746H20.2604C20.3139 16.2746 20.3653 16.2533 20.4031 16.2155C20.441 16.1776 20.4622 16.1263 20.4622 16.0728V14.8618C20.4622 14.8083 20.441 14.757 20.4031 14.7191C20.3653 14.6813 20.3139 14.66 20.2604 14.66H10.5729ZM10.5729 18.091C10.5194 18.091 10.468 18.1122 10.4302 18.1501C10.3923 18.1879 10.3711 18.2393 10.3711 18.2928V19.5037C10.3711 19.5573 10.3923 19.6086 10.4302 19.6465C10.468 19.6843 10.5194 19.7056 10.5729 19.7056H15.2148C15.2683 19.7056 15.3197 19.6843 15.3575 19.6465C15.3954 19.6086 15.4166 19.5573 15.4166 19.5037V18.2928C15.4166 18.2393 15.3954 18.1879 15.3575 18.1501C15.3197 18.1122 15.2683 18.091 15.2148 18.091H10.5729Z" fill="#00E676"/>
</svg>
