<svg width="22" height="22" viewBox="0 0 22 22" fill="none" xmlns="http://www.w3.org/2000/svg">
<path d="M4 3.5H7.47784C7.80499 3.5 8.11145 3.66002 8.29843 3.92848L9.74119 6H18C18.5523 6 19 6.44772 19 7V17.5C19 18.0523 18.5523 18.5 18 18.5H4C3.44772 18.5 3 18.0523 3 17.5V4.5C3 3.94772 3.44772 3.5 4 3.5Z" fill="#C9C9C9" stroke="#FDCF3D" stroke-width="0.3" stroke-linecap="round"/>
<path d="M18.3332 5.50011H10.0343L8.62267 3.55678C8.50889 3.40107 8.35988 3.2745 8.18781 3.1874C8.01575 3.10031 7.82552 3.05517 7.63267 3.05567H3.66656C3.3424 3.05567 3.03153 3.18444 2.80232 3.41365C2.57311 3.64286 2.44434 3.95374 2.44434 4.27789V17.7223C2.44434 18.0465 2.57311 18.3574 2.80232 18.5866C3.03153 18.8158 3.3424 18.9446 3.66656 18.9446H18.3332C18.6574 18.9446 18.9683 18.8158 19.1975 18.5866C19.4267 18.3574 19.5554 18.0465 19.5554 17.7223V6.72234C19.5554 6.39818 19.4267 6.0873 19.1975 5.85809C18.9683 5.62888 18.6574 5.50011 18.3332 5.50011ZM18.3332 17.7223H3.66656V7.94456H8.13378C8.45793 7.94456 8.76881 7.81579 8.99802 7.58658C9.22723 7.35737 9.356 7.04649 9.356 6.72234H3.66656V4.27789H7.63267L9.22767 6.47178C9.28456 6.54963 9.35907 6.61292 9.4451 6.65647C9.53113 6.70001 9.62624 6.72259 9.72267 6.72234H18.3332V17.7223Z" fill="#C9C9C9"/>
</svg>
