<svg width="34" height="30" viewBox="0 0 34 30" fill="none" xmlns="http://www.w3.org/2000/svg">
<path d="M10 15.75C9.58579 15.75 9.25 15.4142 9.25 15C9.25 14.5858 9.58579 14.25 10 14.25V15.75ZM24.5303 14.4697C24.8232 14.7626 24.8232 15.2374 24.5303 15.5303L19.7574 20.3033C19.4645 20.5962 18.9896 20.5962 18.6967 20.3033C18.4038 20.0104 18.4038 19.5355 18.6967 19.2426L22.9393 15L18.6967 10.7574C18.4038 10.4645 18.4038 9.98959 18.6967 9.6967C18.9896 9.40381 19.4645 9.40381 19.7574 9.6967L24.5303 14.4697ZM10 14.25H24V15.75H10V14.25Z" fill="#868686"/>
</svg>
