<svg width="16" height="16" viewBox="0 0 16 16" fill="none" xmlns="http://www.w3.org/2000/svg">
<path d="M4.75 2C4.02065 2 3.32118 2.28973 2.80546 2.80546C2.28973 3.32118 2 4.02065 2 4.75V5.614C2 5.81291 2.07902 6.00368 2.21967 6.14433C2.36032 6.28498 2.55109 6.364 2.75 6.364C2.94891 6.364 3.13968 6.28498 3.28033 6.14433C3.42098 6.00368 3.5 5.81291 3.5 5.614V4.75C3.5 4.06 4.06 3.5 4.75 3.5H5.614C5.81291 3.5 6.00368 3.42098 6.14433 3.28033C6.28498 3.13968 6.364 2.94891 6.364 2.75C6.364 2.55109 6.28498 2.36032 6.14433 2.21967C6.00368 2.07902 5.81291 2 5.614 2H4.75ZM10.386 2C10.2875 2 10.19 2.0194 10.099 2.05709C10.008 2.09478 9.92531 2.15003 9.85567 2.21967C9.78603 2.28931 9.73078 2.37199 9.69309 2.46299C9.6554 2.55398 9.636 2.65151 9.636 2.75C9.636 2.84849 9.6554 2.94602 9.69309 3.03701C9.73078 3.12801 9.78603 3.21069 9.85567 3.28033C9.92531 3.34997 10.008 3.40522 10.099 3.44291C10.19 3.4806 10.2875 3.5 10.386 3.5H11.25C11.94 3.5 12.5 4.06 12.5 4.75V5.614C12.5 5.81291 12.579 6.00368 12.7197 6.14433C12.8603 6.28498 13.0511 6.364 13.25 6.364C13.4489 6.364 13.6397 6.28498 13.7803 6.14433C13.921 6.00368 14 5.81291 14 5.614V4.75C14 4.02065 13.7103 3.32118 13.1945 2.80546C12.6788 2.28973 11.9793 2 11.25 2H10.386ZM3.5 10.386C3.5 10.2875 3.4806 10.19 3.44291 10.099C3.40522 10.008 3.34997 9.92531 3.28033 9.85567C3.21069 9.78603 3.12801 9.73078 3.03701 9.69309C2.94602 9.6554 2.84849 9.636 2.75 9.636C2.65151 9.636 2.55398 9.6554 2.46299 9.69309C2.37199 9.73078 2.28931 9.78603 2.21967 9.85567C2.15003 9.92531 2.09478 10.008 2.05709 10.099C2.0194 10.19 2 10.2875 2 10.386V11.25C2 11.9793 2.28973 12.6788 2.80546 13.1945C3.32118 13.7103 4.02065 14 4.75 14H5.614C5.81291 14 6.00368 13.921 6.14433 13.7803C6.28498 13.6397 6.364 13.4489 6.364 13.25C6.364 13.0511 6.28498 12.8603 6.14433 12.7197C6.00368 12.579 5.81291 12.5 5.614 12.5H4.75C4.06 12.5 3.5 11.94 3.5 11.25V10.386ZM14 10.386C14 10.1871 13.921 9.99632 13.7803 9.85567C13.6397 9.71502 13.4489 9.636 13.25 9.636C13.0511 9.636 12.8603 9.71502 12.7197 9.85567C12.579 9.99632 12.5 10.1871 12.5 10.386V11.25C12.5 11.94 11.94 12.5 11.25 12.5H10.386C10.1871 12.5 9.99632 12.579 9.85567 12.7197C9.71502 12.8603 9.636 13.0511 9.636 13.25C9.636 13.4489 9.71502 13.6397 9.85567 13.7803C9.99632 13.921 10.1871 14 10.386 14H11.25C11.9793 14 12.6788 13.7103 13.1945 13.1945C13.7103 12.6788 14 11.9793 14 11.25V10.386ZM4.5 10V7.385C4.5 7.11978 4.60536 6.86543 4.79289 6.67789C4.98043 6.49036 5.23478 6.385 5.5 6.385H6.25L6.83 5.465C6.9204 5.32225 7.04549 5.20473 7.19361 5.12341C7.34173 5.0421 7.50803 4.99964 7.677 5H8.325C8.49372 5.00008 8.65968 5.04285 8.80743 5.12433C8.95517 5.20581 9.0799 5.32335 9.17 5.466L9.751 6.385H10.501C10.7662 6.385 11.0206 6.49036 11.2081 6.67789C11.3956 6.86543 11.501 7.11978 11.501 7.385V10C11.501 10.2652 11.3956 10.5196 11.2081 10.7071C11.0206 10.8946 10.7662 11 10.501 11H5.501C5.23578 11 4.98143 10.8946 4.79389 10.7071C4.60636 10.5196 4.501 10.2652 4.501 10H4.5ZM8 9.5C8.26522 9.5 8.51957 9.39464 8.70711 9.20711C8.89464 9.01957 9 8.76522 9 8.5C9 8.23478 8.89464 7.98043 8.70711 7.79289C8.51957 7.60536 8.26522 7.5 8 7.5C7.73478 7.5 7.48043 7.60536 7.29289 7.79289C7.10536 7.98043 7 8.23478 7 8.5C7 8.76522 7.10536 9.01957 7.29289 9.20711C7.48043 9.39464 7.73478 9.5 8 9.5Z" fill="#868686"/>
</svg>
