<svg width="16" height="16" viewBox="0 0 16 16" fill="none" xmlns="http://www.w3.org/2000/svg">
<path d="M14.3562 10.8562L11.8562 13.3562H11.85C11.8438 13.3687 11.8313 13.375 11.8188 13.3875L11.8 13.4L11.775 13.4187L11.7563 13.4312L11.7375 13.4438H11.7125L11.6938 13.4563H11.6687L11.6438 13.4688H11.3562L11.3313 13.4563H11.3062L11.2875 13.4438H11.2625L11.2437 13.4312L11.225 13.4187L11.2 13.4L11.1812 13.3875L11.15 13.3562H11.1438L8.64375 10.8562C8.56402 10.7591 8.52327 10.6358 8.52944 10.5102C8.5356 10.3847 8.58824 10.266 8.6771 10.1771C8.76597 10.0882 8.88472 10.0356 9.01024 10.0294C9.13577 10.0233 9.2591 10.064 9.35625 10.1438L11 11.7937V7C11 6.86739 11.0527 6.74021 11.1464 6.64645C11.2402 6.55268 11.3674 6.5 11.5 6.5C11.6326 6.5 11.7598 6.55268 11.8536 6.64645C11.9473 6.74021 12 6.86739 12 7V11.7937L13.6438 10.1438C13.7409 10.064 13.8642 10.0233 13.9898 10.0294C14.1153 10.0356 14.234 10.0882 14.3229 10.1771C14.4118 10.266 14.4644 10.3847 14.4706 10.5102C14.4767 10.6358 14.436 10.7591 14.3562 10.8562ZM7.5 7.5H3C2.86739 7.5 2.74021 7.55268 2.64645 7.64645C2.55268 7.74021 2.5 7.86739 2.5 8C2.5 8.13261 2.55268 8.25979 2.64645 8.35355C2.74021 8.44732 2.86739 8.5 3 8.5H7.5C7.63261 8.5 7.75979 8.44732 7.85355 8.35355C7.94732 8.25979 8 8.13261 8 8C8 7.86739 7.94732 7.74021 7.85355 7.64645C7.75979 7.55268 7.63261 7.5 7.5 7.5ZM3 4.5H11.5C11.6326 4.5 11.7598 4.44732 11.8536 4.35355C11.9473 4.25979 12 4.13261 12 4C12 3.86739 11.9473 3.74021 11.8536 3.64645C11.7598 3.55268 11.6326 3.5 11.5 3.5H3C2.86739 3.5 2.74021 3.55268 2.64645 3.64645C2.55268 3.74021 2.5 3.86739 2.5 4C2.5 4.13261 2.55268 4.25979 2.64645 4.35355C2.74021 4.44732 2.86739 4.5 3 4.5ZM6.5 11.5H3C2.86739 11.5 2.74021 11.5527 2.64645 11.6464C2.55268 11.7402 2.5 11.8674 2.5 12C2.5 12.1326 2.55268 12.2598 2.64645 12.3536C2.74021 12.4473 2.86739 12.5 3 12.5H6.5C6.63261 12.5 6.75979 12.4473 6.85355 12.3536C6.94732 12.2598 7 12.1326 7 12C7 11.8674 6.94732 11.7402 6.85355 11.6464C6.75979 11.5527 6.63261 11.5 6.5 11.5Z" fill="#868686"/>
</svg>
