<svg width="16" height="16" viewBox="0 0 16 16" fill="none" xmlns="http://www.w3.org/2000/svg">
<path d="M14.0002 1.33325H4.00016C3.64654 1.33325 3.3074 1.47373 3.05735 1.72378C2.80731 1.97382 2.66683 2.31296 2.66683 2.66659V4.66659H1.3335V5.99992H2.66683V7.33325H1.3335V8.66659H2.66683V9.99992H1.3335V11.3333H2.66683V13.3333C2.66683 13.6869 2.80731 14.026 3.05735 14.2761C3.3074 14.5261 3.64654 14.6666 4.00016 14.6666H14.0002C14.177 14.6666 14.3465 14.5963 14.4716 14.4713C14.5966 14.3463 14.6668 14.1767 14.6668 13.9999V1.99992C14.6668 1.82311 14.5966 1.65354 14.4716 1.52851C14.3465 1.40349 14.177 1.33325 14.0002 1.33325ZM8.66683 3.33259C9.7655 3.33259 10.6668 4.23325 10.6668 5.33259C10.6649 5.86249 10.4536 6.37014 10.0789 6.7449C9.70431 7.11966 9.19673 7.33114 8.66683 7.33325C7.56883 7.33325 6.66683 6.43125 6.66683 5.33259C6.66683 4.23325 7.56883 3.33259 8.66683 3.33259ZM12.6668 11.9999H4.66683V11.4999C4.66683 10.0206 6.47016 8.49992 8.66683 8.49992C10.8635 8.49992 12.6668 10.0206 12.6668 11.4999V11.9999Z" fill="#868686"/>
</svg>
