<svg width="22" height="22" viewBox="0 0 22 22" fill="none" xmlns="http://www.w3.org/2000/svg">
<path d="M18.8255 8.19555L14.7854 3.88232H6.47039C5.75567 3.88232 5.17627 4.46172 5.17627 5.17644V18.3873C5.17627 19.094 5.74313 19.67 6.44968 19.6813L16.1959 19.8372C17.6413 19.8604 18.8255 18.695 18.8255 17.2493V8.19555Z" fill="#0F55D5"/>
<path d="M18.6583 8.40773C18.6598 8.05549 18.5228 7.71673 18.2769 7.46448L18.2769 7.46445L18.2711 7.45863L14.8336 4.02113L14.8337 4.0211L14.8278 4.01536C14.5756 3.76948 14.2369 3.63253 13.8847 3.63396M18.6583 8.40773C18.6583 8.40837 18.6583 8.40902 18.6583 8.40967L18.0112 8.40602H18.6583V8.40773ZM18.6583 8.40773V15.281V16.656V18.031C18.6583 18.5673 18.4453 19.0816 18.066 19.4608C17.6868 19.84 17.1725 20.0531 16.6362 20.0531H7.01123C6.47495 20.0531 5.96063 19.84 5.58142 19.4608C5.20221 19.0816 4.98917 18.5673 4.98917 18.031V5.65602C4.98917 5.11973 5.20221 4.60541 5.58142 4.22621C5.96063 3.847 6.47495 3.63396 7.01123 3.63396H8.38623H9.76123H13.8847M13.8847 3.63396C13.884 3.63396 13.8833 3.63396 13.8826 3.63397L13.8862 4.28102V3.63396H13.8847Z" stroke="#0F55D5" stroke-width="1.29412"/>
<path d="M13.8862 15.9685H9.76123C9.57889 15.9685 9.40403 15.8961 9.27509 15.7671C9.14616 15.6382 9.07373 15.4633 9.07373 15.281C9.07373 15.0987 9.14616 14.9238 9.27509 14.7949C9.40403 14.6659 9.57889 14.5935 9.76123 14.5935H13.8862C14.0686 14.5935 14.2434 14.6659 14.3724 14.7949C14.5013 14.9238 14.5737 15.0987 14.5737 15.281C14.5737 15.4633 14.5013 15.6382 14.3724 15.7671C14.2434 15.8961 14.0686 15.9685 13.8862 15.9685ZM13.8862 13.2185H9.76123C9.57889 13.2185 9.40403 13.1461 9.27509 13.0171C9.14616 12.8882 9.07373 12.7133 9.07373 12.531C9.07373 12.3487 9.14616 12.1738 9.27509 12.0449C9.40403 11.9159 9.57889 11.8435 9.76123 11.8435H13.8862C14.0686 11.8435 14.2434 11.9159 14.3724 12.0449C14.5013 12.1738 14.5737 12.3487 14.5737 12.531C14.5737 12.7133 14.5013 12.8882 14.3724 13.0171C14.2434 13.1461 14.0686 13.2185 13.8862 13.2185Z" fill="white"/>
</svg>
