<svg width="16" height="16" viewBox="0 0 16 16" fill="none" xmlns="http://www.w3.org/2000/svg">
<path d="M14.0001 11.3333H16.0001L13.3334 14L10.6667 11.3333H12.6667V2H14.0001V11.3333ZM5.33341 10.6667H7.33341V8.66667H5.33341V10.6667ZM8.66675 3.33333H8.00008V2H6.66675V3.33333H4.00008V2H2.66675V3.33333H2.00008C1.26008 3.33333 0.666748 3.92667 0.666748 4.66667V12C0.666748 12.74 1.26008 13.3333 2.00008 13.3333H8.66675C9.40675 13.3333 10.0001 12.74 10.0001 12V4.66667C10.0001 3.92667 9.40675 3.33333 8.66675 3.33333ZM2.00008 12V7.33333H8.66675V12H2.00008Z" fill="#868686"/>
</svg>
