<svg width="272" height="238" viewBox="0 0 272 238" fill="none" xmlns="http://www.w3.org/2000/svg">
<ellipse cx="130.132" cy="125.918" rx="119.218" ry="112.082" fill="#E9EFFD"/>
<circle cx="269.401" cy="174.094" r="2.41922" fill="#BFD8FF"/>
<ellipse cx="259.539" cy="126.238" rx="2.40563" ry="2.41922" fill="#4F99F5"/>
<ellipse cx="26.7959" cy="47.3193" rx="2.40563" ry="2.41922" fill="#BFD8FF"/>
<ellipse cx="2.40563" cy="98.7822" rx="2.40563" ry="2.41922" fill="#4F99F5"/>
<ellipse cx="9.69738" cy="10.0001" rx="9.69738" ry="10.0001" transform="matrix(-1.00021 0 0 1.00021 52.113 14.8206)" fill="#F5F5F5"/>
<ellipse cx="9.69738" cy="10.0001" rx="9.69738" ry="10.0001" transform="matrix(-1.00021 0 0 1.00021 27.6025 11.1559)" fill="#F5F5F5"/>
<ellipse cx="7.1472" cy="7.37032" rx="7.1472" ry="7.37032" transform="matrix(-1.00021 0 0 1.00021 16.802 20.0815)" fill="#F5F5F5"/>
<ellipse cx="11.1766" cy="10.0001" rx="11.1766" ry="10.0001" transform="matrix(-1.00021 0 0 1.00021 42.4135 5.44059)" fill="#F5F5F5"/>
<rect width="33.3641" height="12.4379" transform="matrix(-1.00021 0 0 1.00021 42.72 22.3755)" fill="#F5F5F5"/>
<ellipse cx="35.6101" cy="36.7218" rx="35.6101" ry="36.7218" transform="matrix(-1.00021 0 0 1.00021 253.332 34.445)" fill="#BFD8FF"/>
<ellipse cx="35.6101" cy="36.7218" rx="35.6101" ry="36.7218" transform="matrix(-1.00021 0 0 1.00021 159.283 20.9894)" fill="#BFD8FF"/>
<ellipse cx="26.2455" cy="27.0648" rx="26.2455" ry="27.0648" transform="matrix(-1.00021 0 0 1.00021 123.666 53.7635)" fill="#BFD8FF"/>
<ellipse cx="41.0421" cy="36.7218" rx="41.0421" ry="36.7218" transform="matrix(-1.00021 0 0 1.00021 217.715 0)" fill="#BFD8FF"/>
<rect width="122.517" height="45.6736" transform="matrix(-1.00021 0 0 1.00021 218.841 62.1879)" fill="#BFD8FF"/>
<rect x="38.2035" y="85.3363" width="195.661" height="133.294" rx="14.1022" fill="#E9EFFD"/>
<rect x="47.8551" y="171.271" width="175.323" height="15.5156" rx="4.19694" fill="#ADCFFF"/>
<rect x="47.8551" y="117.539" width="42.8178" height="5.87695" rx="1.67878" fill="#ADCFFF"/>
<rect x="47.8551" y="127.614" width="42.8178" height="5.87695" rx="1.67878" fill="#ADCFFF"/>
<rect x="47.8551" y="137.689" width="42.8178" height="5.87695" rx="1.67878" fill="#ADCFFF"/>
<rect x="47.8551" y="98.0307" width="131.142" height="15.5156" rx="4.19694" fill="#ADCFFF"/>
<rect x="47.8551" y="191.125" width="175.323" height="15.5156" rx="4.19694" fill="#ADCFFF"/>
<path d="M218.748 85.3363H53.3202C44.9715 85.3363 38.2035 91.6456 38.2035 99.4285V204.537C38.2035 212.32 44.9715 218.63 53.3202 218.63H218.748C227.097 218.63 233.865 212.32 233.865 204.537V99.4285C233.865 91.6456 227.097 85.3363 218.748 85.3363Z" stroke="#BFD8FF" stroke-width="6.39856" stroke-linejoin="round"/>
<path d="M22.9855 225.78H249.082H22.9855Z" fill="black"/>
<path d="M22.9855 225.78H249.082" stroke="#BFD8FF" stroke-width="6.39856" stroke-miterlimit="10" stroke-linecap="round"/>
<path d="M130.752 69.784L70.7353 98.4463C66.5289 100.455 63.6404 104.515 63.3561 109.168C59.0008 180.438 96.9451 221.035 131.323 235.651C134.632 237.058 138.382 236.81 141.557 235.123C190.78 208.964 214.024 167.683 208.609 108.852C208.197 104.376 205.383 100.497 201.341 98.5312L142.331 69.8257C138.679 68.0492 134.417 68.0339 130.752 69.784Z" fill="#0F55D5"/>
<path d="M131.987 84.4001L84.0337 105.625C80.4149 107.227 77.9053 110.653 77.664 114.603C74.0779 173.323 104.146 207.87 132.347 220.021C135.07 221.195 138.165 220.988 140.784 219.596C181.297 198.064 199.277 164.638 194.721 116.172C194.374 112.481 192.055 109.282 188.721 107.661L141.247 84.5671C138.336 83.1506 134.948 83.0895 131.987 84.4001Z" fill="#007CFF"/>
<path d="M159.577 83.3334L201.737 103.909C203.58 104.809 204.928 106.502 205.208 108.533C205.834 113.067 206.097 119.113 205.651 126.001" stroke="#BFD8FF" stroke-width="1.99964" stroke-linecap="round"/>
<path d="M139.688 73.6663L154.273 80.6666" stroke="#BFD8FF" stroke-width="1.99964" stroke-linecap="round"/>
<path d="M136.374 149.113C135.129 149.099 133.91 149.468 132.88 150.171C131.851 150.875 131.06 151.878 130.615 153.047C130.169 154.216 130.091 155.494 130.39 156.709C130.688 157.924 131.35 159.018 132.286 159.844V165.558C132.286 166.649 132.717 167.694 133.483 168.465C134.25 169.236 135.29 169.67 136.374 169.67C137.458 169.67 138.498 169.236 139.265 168.465C140.031 167.694 140.462 166.649 140.462 165.558V159.844C141.398 159.018 142.06 157.924 142.358 156.709C142.657 155.494 142.579 154.216 142.133 153.047C141.688 151.878 140.897 150.875 139.868 150.171C138.838 149.468 137.619 149.099 136.374 149.113ZM156.815 132.668V124.446C156.815 118.994 154.661 113.766 150.828 109.91C146.994 106.055 141.795 103.89 136.374 103.89C130.953 103.89 125.754 106.055 121.92 109.91C118.087 113.766 115.933 118.994 115.933 124.446V132.668C112.681 132.668 109.561 133.968 107.261 136.281C104.961 138.594 103.669 141.731 103.669 145.002V173.781C103.669 177.052 104.961 180.189 107.261 182.502C109.561 184.815 112.681 186.115 115.933 186.115H156.815C160.067 186.115 163.187 184.815 165.487 182.502C167.787 180.189 169.079 177.052 169.079 173.781V145.002C169.079 141.731 167.787 138.594 165.487 136.281C163.187 133.968 160.067 132.668 156.815 132.668ZM122.006 124.446C122.006 121.175 122.006 117.778 125.598 113.609C127.898 111.296 133.121 109.996 136.374 109.996C139.588 109.863 144.802 111.133 147.15 113.609C150.742 118.836 150.742 121.175 150.742 124.446V132.668H122.006V124.446ZM163.007 175.897C163.007 176.987 162.576 178.033 161.809 178.804C161.043 179.575 160.003 180.008 158.919 180.008H113.829C112.745 180.008 111.705 179.575 110.939 178.804C110.172 178.033 109.741 176.987 109.741 175.897V142.886C109.741 141.796 110.172 140.75 110.939 139.979C111.705 139.208 112.745 138.775 113.829 138.775H158.919C160.003 138.775 161.043 139.208 161.809 139.979C162.576 140.75 163.007 146.028 163.007 145.002C163.007 143.977 163.007 175.897 163.007 175.897Z" fill="#FDCF3D"/>
<path d="M219.153 34.3153V40.7508L215.953 42.3596L211.154 37.533L204.754 43.9685L209.554 48.7951L207.954 52.0128H201.555V61.666H207.954L209.554 64.8838L204.754 69.7104L211.154 76.1458L215.953 71.3192L219.153 72.9281V79.3636H228.752V72.9281L231.951 71.3192L236.751 76.1458L243.15 69.7104L238.351 64.8838L239.951 61.666H246.35V52.0128H239.951L238.351 48.7951L243.15 43.9685L236.751 37.533L231.951 42.3596L228.752 40.7508V34.3153H219.153Z" fill="#A4CAFF" stroke="#A4CAFF" stroke-width="2.11533" stroke-linecap="round" stroke-linejoin="round"/>
<path d="M223.952 63.2749C227.486 63.2749 230.352 60.3937 230.352 56.8395C230.352 53.2853 227.486 50.404 223.952 50.404C220.418 50.404 217.553 53.2853 217.553 56.8395C217.553 60.3937 220.418 63.2749 223.952 63.2749Z" fill="#A4CAFF" stroke="#BFD8FF" stroke-width="2.11533" stroke-linecap="round" stroke-linejoin="round"/>
<path d="M212.039 53.7576C212.772 51.0094 214.429 48.6015 216.729 46.9443C219.028 45.287 221.828 44.4829 224.651 44.669C227.474 44.8551 230.146 46.0198 232.211 47.9648C234.276 49.9097 235.606 52.5145 235.976 55.3354C236.345 58.1562 235.73 61.0185 234.236 63.4347C232.742 65.8508 230.461 67.6712 227.782 68.5858C225.103 69.5003 222.192 69.4524 219.544 68.4502C216.896 67.448 214.676 65.5535 213.261 63.0895" stroke="#BFD8FF" stroke-width="0.683071" stroke-linecap="round" stroke-dasharray="4.89 4.89"/>
<path d="M179.354 26.9106V31.2303L177.207 32.3102L173.985 29.0704L169.69 33.3901L172.911 36.6299L171.837 38.7897H167.542V45.2693H171.837L172.911 47.4291L169.69 50.6689L173.985 54.9886L177.207 51.7488L179.354 52.8287V57.1484H185.798V52.8287L187.945 51.7488L191.167 54.9886L195.462 50.6689L192.241 47.4291L193.315 45.2693H197.61V38.7897H193.315L192.241 36.6299L195.462 33.3901L191.167 29.0704L187.945 32.3102L185.798 31.2303V26.9106H179.354Z" fill="#A4CAFF" stroke="#A4CAFF" stroke-width="1.45252" stroke-linecap="round" stroke-linejoin="round"/>
<path d="M182.576 46.349C184.948 46.349 186.871 44.415 186.871 42.0293C186.871 39.6436 184.948 37.7096 182.576 37.7096C180.204 37.7096 178.281 39.6436 178.281 42.0293C178.281 44.415 180.204 46.349 182.576 46.349Z" fill="#A4CAFF" stroke="#BFD8FF" stroke-width="2.1594" stroke-linecap="round" stroke-linejoin="round"/>
<path d="M173.982 39.8412C174.509 37.865 175.7 36.1335 177.354 34.9417C179.008 33.75 181.021 33.1718 183.051 33.3056C185.081 33.4394 187.002 34.277 188.487 35.6756C189.972 37.0742 190.929 38.9473 191.195 40.9757C191.46 43.0042 191.018 45.0625 189.944 46.8C188.869 48.5374 187.229 49.8465 185.303 50.5041C183.376 51.1618 181.283 51.1273 179.378 50.4066C177.474 49.6859 175.878 48.3236 174.86 46.5517" stroke="#BFD8FF" stroke-width="0.491196" stroke-linecap="round" stroke-dasharray="4.89 4.89"/>
</svg>
