<svg width="16" height="16" viewBox="0 0 16 16" fill="none" xmlns="http://www.w3.org/2000/svg">
<path d="M3.20001 1.6001C3.12122 1.6001 3.0432 1.61562 2.9704 1.64577C2.89761 1.67592 2.83146 1.72012 2.77575 1.77583C2.72003 1.83155 2.67584 1.89769 2.64568 1.97049C2.61553 2.04328 2.60001 2.1213 2.60001 2.2001C2.60001 2.27889 2.61553 2.35691 2.64568 2.42971C2.67584 2.5025 2.72003 2.56865 2.77575 2.62436C2.83146 2.68008 2.89761 2.72427 2.9704 2.75443C3.0432 2.78458 3.12122 2.8001 3.20001 2.8001H5.22161L2.71521 6.2473C2.65017 6.33678 2.61112 6.4425 2.6024 6.55277C2.59367 6.66305 2.61561 6.7736 2.66577 6.87219C2.71594 6.97078 2.79238 7.05359 2.88667 7.11146C2.98095 7.16933 3.08939 7.2 3.20001 7.2001H6.40001C6.55914 7.2001 6.71175 7.13688 6.82428 7.02436C6.9368 6.91184 7.00001 6.75923 7.00001 6.6001C7.00001 6.44097 6.9368 6.28835 6.82428 6.17583C6.71175 6.06331 6.55914 6.0001 6.40001 6.0001H4.37841L6.88561 2.5529C6.9507 2.46336 6.98975 2.35757 6.99844 2.24722C7.00714 2.13687 6.98513 2.02627 6.93487 1.92765C6.88461 1.82903 6.80804 1.74623 6.71365 1.68842C6.61925 1.63061 6.5107 1.60005 6.40001 1.6001H3.20001ZM5.36721 8.4041C5.32649 8.28606 5.24997 8.18367 5.1483 8.11119C5.04662 8.03871 4.92487 7.99976 4.80001 7.99976C4.67515 7.99976 4.5534 8.03871 4.45173 8.11119C4.35006 8.18367 4.27353 8.28606 4.23281 8.4041L2.43281 13.6041C2.40707 13.6786 2.39626 13.7574 2.40098 13.8361C2.40571 13.9147 2.42588 13.9917 2.46035 14.0626C2.49482 14.1334 2.54291 14.1968 2.60187 14.2491C2.66084 14.3014 2.72953 14.3416 2.80401 14.3673C2.8785 14.393 2.95732 14.4039 3.03599 14.3991C3.11466 14.3944 3.19162 14.3742 3.26249 14.3398C3.33336 14.3053 3.39675 14.2572 3.44903 14.1982C3.50131 14.1393 3.54147 14.0706 3.56721 13.9961L3.84241 13.2001H5.75761L6.03281 13.9961C6.08479 14.1465 6.19441 14.2701 6.33753 14.3398C6.48066 14.4094 6.64558 14.4193 6.79601 14.3673C6.94644 14.3153 7.07006 14.2057 7.13968 14.0626C7.20929 13.9194 7.21919 13.7545 7.16721 13.6041L5.36721 8.4041ZM4.80001 10.4345L5.34241 12.0001H4.25841L4.80001 10.4345ZM11.4 1.6001C11.5591 1.6001 11.7118 1.66331 11.8243 1.77583C11.9368 1.88836 12 2.04097 12 2.2001V12.2577L13.1576 10.9945C13.2652 10.8772 13.415 10.8074 13.574 10.8005C13.733 10.7936 13.8883 10.8501 14.0056 10.9577C14.1229 11.0653 14.1927 11.215 14.1996 11.3741C14.2065 11.5331 14.15 11.6884 14.0424 11.8057L11.8424 14.2057C11.7862 14.267 11.7178 14.316 11.6417 14.3496C11.5655 14.3831 11.4832 14.4004 11.4 14.4004C11.3168 14.4004 11.2345 14.3831 11.1583 14.3496C11.0822 14.316 11.0138 14.267 10.9576 14.2057L8.75761 11.8057C8.65004 11.6884 8.59348 11.5331 8.60038 11.3741C8.60729 11.215 8.67708 11.0653 8.79441 10.9577C8.91174 10.8501 9.067 10.7936 9.22603 10.8005C9.38506 10.8074 9.53484 10.8772 9.64241 10.9945L10.8 12.2577V2.2001C10.8 2.04097 10.8632 1.88836 10.9757 1.77583C11.0883 1.66331 11.2409 1.6001 11.4 1.6001Z" fill="#868686"/>
</svg>
