<svg width="20" height="20" viewBox="0 0 20 20" fill="none" xmlns="http://www.w3.org/2000/svg">
<g clip-path="url(#clip0_230_1478)">
<path fill-rule="evenodd" clip-rule="evenodd" d="M10 0C8.3503 0.00517314 6.75685 0.600169 5.5075 1.6775C4.55 2.5025 3.85625 3.5775 3.6775 4.65625C1.5825 5.11875 0 6.94375 0 9.1475C0 11.7075 2.135 13.75 4.72625 13.75H9.375V6.875C9.375 6.70924 9.44085 6.55027 9.55806 6.43306C9.67527 6.31585 9.83424 6.25 10 6.25C10.1658 6.25 10.3247 6.31585 10.4419 6.43306C10.5592 6.55027 10.625 6.70924 10.625 6.875V13.75H15.86C18.1275 13.75 20 11.9625 20 9.71625C20 7.67125 18.4475 6.005 16.4575 5.72375C16.1538 2.49875 13.3625 0 10 0ZM9.5575 19.8175C9.61556 19.8757 9.68453 19.9219 9.76046 19.9534C9.83639 19.9849 9.91779 20.0011 10 20.0011C10.0822 20.0011 10.1636 19.9849 10.2395 19.9534C10.3155 19.9219 10.3844 19.8757 10.4425 19.8175L14.1925 16.0675C14.3099 15.9501 14.3758 15.791 14.3758 15.625C14.3758 15.459 14.3099 15.2999 14.1925 15.1825C14.0751 15.0651 13.916 14.9992 13.75 14.9992C13.584 14.9992 13.4249 15.0651 13.3075 15.1825L10.625 17.8663V13.75H9.375V17.8663L6.6925 15.1825C6.57514 15.0651 6.41597 14.9992 6.25 14.9992C6.08403 14.9992 5.92486 15.0651 5.8075 15.1825C5.69014 15.2999 5.62421 15.459 5.62421 15.625C5.62421 15.791 5.69014 15.9501 5.8075 16.0675L9.5575 19.8175Z" fill="#868686"/>
</g>
<defs>
<clipPath id="clip0_230_1478">
<rect width="20" height="20" fill="white"/>
</clipPath>
</defs>
</svg>
