<svg width="28" height="28" viewBox="0 0 28 28" fill="none" xmlns="http://www.w3.org/2000/svg">
<path d="M5.30843 12.8801C5.30843 17.0732 8.68702 20.4518 12.8801 20.4518C17.0732 20.4518 20.4518 17.0732 20.4518 12.8801C20.4518 8.68701 17.0732 5.30843 12.8801 5.30843C8.68702 5.30843 5.30843 8.68701 5.30843 12.8801ZM7.01176 12.8801C7.01176 9.62518 9.62518 7.01176 12.8801 7.01176C16.135 7.01176 18.7484 9.62518 18.7484 12.8801C18.7484 16.135 16.135 18.7484 12.8801 18.7484C9.62518 18.7484 7.01176 16.135 7.01176 12.8801Z" fill="#C9C9C9" stroke="#C9C9C9" stroke-width="0.583333"/>
<path d="M18.5078 17.3033L18.3016 17.097L18.0954 17.3033L17.3035 18.0951L17.0973 18.3014L17.3035 18.5076L22.3323 23.5364L22.5386 23.7426L22.7448 23.5364L23.5366 22.7446L23.7429 22.5383L23.5366 22.3321L18.5078 17.3033Z" fill="#C9C9C9" stroke="#C9C9C9" stroke-width="0.583333"/>
</svg>
