<svg width="328" height="260" viewBox="0 0 328 260" fill="none" xmlns="http://www.w3.org/2000/svg">
<path d="M46.125 233.573C-43.6325 199.43 18.0057 167.984 60.0445 156.529C198.4 134.414 347.551 185.246 325.655 233.244C313.183 260.584 158.322 276.252 46.125 233.573Z" fill="#F8FAFF"/>
<circle cx="224.301" cy="246.034" r="1.89889" fill="#BFD8FF"/>
<ellipse cx="297.801" cy="215.243" rx="1.88822" ry="1.89889" fill="#4F99F5"/>
<ellipse cx="51.4484" cy="163.763" rx="1.88822" ry="1.89889" fill="#BFD8FF"/>
<ellipse cx="15.4893" cy="204.157" rx="1.88822" ry="1.89889" fill="#4F99F5"/>
<ellipse cx="151.821" cy="32.7686" rx="1.88822" ry="1.89889" fill="#BFD8FF"/>
<ellipse cx="266.348" cy="127.371" rx="1.88822" ry="1.89889" fill="#BFD8FF"/>
<path d="M256.168 138.961C253.229 124.884 245.867 116.855 242.554 114.6V141.004C251.033 146.986 269.432 158.025 275.196 154.327C274.544 149.542 262.239 142.089 256.168 138.961Z" fill="#0F55D4"/>
<path d="M132.383 63.9761L60.1554 107.941C54.3151 166.7 152.795 233.553 242.294 215.496C251.715 210.001 270.714 199.01 271.342 199.01C271.97 199.01 271.603 168.915 271.342 153.868C268.201 149.942 259.644 143.034 253.677 140.521C253.363 136.125 247.528 125.867 244.649 121.287L132.383 63.9761Z" fill="#082B6B"/>
<path d="M245.042 213.926L225.415 224.918L159.469 196.262V36.628C159.469 33.6054 162.741 31.7168 165.358 33.2294L239.159 75.8849C242.8 77.9892 245.042 81.8753 245.042 86.0806V213.926Z" fill="#538EF9"/>
<path d="M226.2 224.525L205.396 235.909L140.234 194.692V42.9199C140.234 39.8948 143.512 38.0066 146.129 39.5242L220.332 82.5552C223.964 84.6617 226.2 88.5432 226.2 92.7423V224.525Z" fill="#E9EFFD"/>
<path d="M124.14 53.8801V98.9122V147.195L210.891 210.393V103.764C210.891 99.5486 208.638 95.6545 204.982 93.554L130.021 50.4766C127.404 48.9728 124.14 50.8618 124.14 53.8801Z" fill="#007CFF"/>
<path d="M200.269 191.733C238.323 227.168 258.082 190.834 264.528 158.88L261.872 172.128L272.666 197.94L205.352 235.766C203.452 228.382 198.41 206.104 200.269 191.733Z" fill="#082B6B"/>
<path d="M137.094 78.8928L197.152 113.044" stroke="#FDCF3D" stroke-width="3.61613" stroke-linecap="round"/>
<path d="M137.094 98.9122L197.152 133.456M138.664 120.894L197.152 153.868" stroke="#FDCF3D" stroke-width="3.61613" stroke-linecap="round"/>
<path d="M137.094 141.11L197.152 175.654M138.664 163.093L197.152 196.066" stroke="#FDCF3D" stroke-width="3.61613" stroke-linecap="round"/>
<path d="M105.08 0.365611L97.3589 5.25137C97.3247 5.27302 97.3125 5.31714 97.3308 5.35325L108.013 26.3969L107.463 66.4661C107.462 66.5263 107.526 66.565 107.579 66.5361L115.129 62.3961C116.903 61.4231 118 59.5535 117.982 57.5298L117.837 40.8325L122.539 37.8255C123.867 36.9764 124.36 35.275 123.691 33.8479L108.472 1.35681C107.871 0.07239 106.278 -0.392811 105.08 0.365611Z" fill="#ECF4FF"/>
<path d="M90.0417 57.2991L106.315 66.4181C107.361 67.0047 108.653 66.2482 108.653 65.0484L108.653 39.0462L114.662 42.4383C115.324 42.8119 116.078 42.1207 115.763 41.429L99.5836 5.92749C99.132 4.93649 97.8332 4.695 97.0556 5.45744L82.1861 20.0358C81.1179 21.0831 81.284 22.8479 82.5288 23.6775L88.0352 27.3473L88.0352 53.8747C88.0352 55.2951 88.8026 56.6047 90.0417 57.2991Z" fill="#BFD8FF"/>
<path d="M275.211 149.095L268.202 153.475V173.73L260.684 177.298L276.628 213.83C276.97 214.614 277.879 214.982 278.661 214.634C279.168 214.408 279.686 214.168 280.245 213.9C284.157 212.028 287.629 209.36 290.67 206.268L302.761 193.973C303.457 193.265 303.33 192.097 302.499 191.556L296.465 187.626V161.284C296.465 159.608 295.575 158.059 294.128 157.215L280.081 149.021C278.569 148.139 276.694 148.168 275.211 149.095Z" fill="#ECF4FF"/>
<path d="M285.985 162.414L269.711 153.295C268.665 152.708 267.374 153.465 267.374 154.664V180.667L261.364 177.275C260.702 176.901 259.948 177.592 260.264 178.284L276.443 213.785C276.894 214.776 278.193 215.018 278.971 214.255L293.84 199.677C294.908 198.63 294.742 196.865 293.497 196.035L287.991 192.366V165.838C287.991 164.418 287.224 163.108 285.985 162.414Z" fill="#8FBEFF"/>
<path d="M147.987 138.883C124.042 65.4775 72.6189 85.1046 79.2922 110.228C70.8614 104.102 55.8565 102.436 53.3844 120.826C51.1861 143.75 61.741 157.725 70.6561 162.828C109.518 185.071 188.497 230.423 193.521 233.877C199.802 238.195 215.503 238.588 212.363 216.213C209.223 194.545 192.213 183.37 184.1 180.492C178.605 154.977 156.23 139.668 147.987 138.883Z" fill="#0F55D4"/>
<path d="M145.337 140.522C121.392 67.1167 69.9694 86.7438 76.6427 111.867C68.2119 105.742 53.207 104.075 50.7349 122.465C48.5366 145.389 59.0915 159.364 68.0066 164.467C106.868 186.711 185.847 232.062 190.872 235.516C197.152 239.834 212.854 240.227 209.713 217.852C206.573 196.184 189.563 185.01 181.451 182.131C175.955 156.616 153.58 141.307 145.337 140.522Z" fill="#BFD8FF"/>
</svg>
