<svg width="33" height="33" viewBox="0 0 33 33" fill="none" xmlns="http://www.w3.org/2000/svg">
<path d="M15.5331 4.89846H17.4667C17.6386 4.89846 17.7245 4.9844 17.7245 5.15628V27.8438C17.7245 28.0156 17.6386 28.1016 17.4667 28.1016H15.5331C15.3613 28.1016 15.2753 28.0156 15.2753 27.8438V5.15628C15.2753 4.9844 15.3613 4.89846 15.5331 4.89846Z" fill="white"/>
<path d="M5.67202 15.2756H27.3283C27.5001 15.2756 27.5861 15.3615 27.5861 15.5334V17.467C27.5861 17.6389 27.5001 17.7248 27.3283 17.7248H5.67202C5.50015 17.7248 5.41421 17.6389 5.41421 17.467V15.5334C5.41421 15.3615 5.50015 15.2756 5.67202 15.2756Z" fill="white"/>
</svg>
