<svg width="32" height="27" viewBox="0 0 32 27" fill="none" xmlns="http://www.w3.org/2000/svg">
<path d="M10.3162 2.25L14.1637 6.08625L14.8162 6.75H29.25V24.75H2.25V2.25H10.3162ZM10.3162 7.06425e-07H2.25C1.65326 7.06425e-07 1.08097 0.237054 0.65901 0.65901C0.237053 1.08097 0 1.65326 0 2.25V24.75C0 25.3467 0.237053 25.919 0.65901 26.341C1.08097 26.7629 1.65326 27 2.25 27H29.25C29.8467 27 30.419 26.7629 30.841 26.341C31.2629 25.919 31.5 25.3467 31.5 24.75V6.75C31.5 6.15326 31.2629 5.58097 30.841 5.15901C30.419 4.73705 29.8467 4.5 29.25 4.5H15.75L11.9137 0.663751C11.7044 0.453186 11.4555 0.28613 11.1813 0.172212C10.9072 0.0582935 10.6132 -0.000234553 10.3162 7.06425e-07Z" fill="#8FBEFF"/>
</svg>
