<svg width="36" height="36" viewBox="0 0 36 36" fill="none" xmlns="http://www.w3.org/2000/svg">
<path d="M12.5662 6.75L16.4137 10.5863L17.0662 11.25H31.5V29.25H4.5V6.75H12.5662ZM12.5662 4.5H4.5C3.90326 4.5 3.33097 4.73705 2.90901 5.15901C2.48705 5.58097 2.25 6.15326 2.25 6.75V29.25C2.25 29.8467 2.48705 30.419 2.90901 30.841C3.33097 31.2629 3.90326 31.5 4.5 31.5H31.5C32.0967 31.5 32.669 31.2629 33.091 30.841C33.5129 30.419 33.75 29.8467 33.75 29.25V11.25C33.75 10.6533 33.5129 10.081 33.091 9.65901C32.669 9.23705 32.0967 9 31.5 9H18L14.1637 5.16375C13.9544 4.95319 13.7055 4.78613 13.4313 4.67221C13.1572 4.55829 12.8632 4.49977 12.5662 4.5Z" fill="#8FBEFF"/>
<path d="M3.5 29.5V7C3.5 6.44772 3.94772 6 4.5 6H13.5L17.5 10H31.5C32.0523 10 32.5 10.4477 32.5 11V29.5C32.5 30.0523 32.0523 30.5 31.5 30.5H4.5C3.94772 30.5 3.5 30.0523 3.5 29.5Z" fill="#8FBEFF"/>
</svg>
