<svg width="16" height="16" viewBox="0 0 16 16" fill="none" xmlns="http://www.w3.org/2000/svg">
<path d="M9.2133 14.6668H6.78663C6.63458 14.6669 6.4871 14.6149 6.36863 14.5196C6.25016 14.4243 6.16783 14.2914 6.1353 14.1428L5.86396 12.8868C5.502 12.7282 5.15879 12.5299 4.84063 12.2955L3.61596 12.6855C3.47101 12.7317 3.3146 12.727 3.17271 12.672C3.03082 12.6171 2.912 12.5153 2.83596 12.3835L1.61996 10.2828C1.54473 10.1509 1.51649 9.99738 1.53986 9.84733C1.56323 9.69728 1.63684 9.55961 1.74863 9.45683L2.69863 8.59016C2.65543 8.19757 2.65543 7.80142 2.69863 7.40883L1.74863 6.54416C1.63668 6.44134 1.56297 6.30355 1.5396 6.15335C1.51622 6.00316 1.54456 5.84948 1.61996 5.7175L2.8333 3.6155C2.90933 3.48371 3.02816 3.38189 3.17004 3.32695C3.31193 3.27202 3.46834 3.26727 3.6133 3.3135L4.83796 3.7035C5.00063 3.5835 5.16996 3.4715 5.34463 3.37016C5.5133 3.2755 5.68663 3.1895 5.86396 3.11283L6.13596 1.85816C6.16834 1.70963 6.25052 1.57662 6.36886 1.4812C6.4872 1.38577 6.63461 1.33366 6.78663 1.3335H9.2133C9.36532 1.33366 9.51272 1.38577 9.63107 1.4812C9.74941 1.57662 9.83158 1.70963 9.86396 1.85816L10.1386 3.1135C10.5001 3.27301 10.8432 3.47128 11.162 3.70483L12.3873 3.31483C12.5322 3.26877 12.6884 3.27361 12.8302 3.32854C12.9719 3.38346 13.0906 3.48518 13.1666 3.61683L14.38 5.71883C14.5346 5.99016 14.4813 6.3335 14.2513 6.54483L13.3013 7.4115C13.3445 7.80409 13.3445 8.20024 13.3013 8.59283L14.2513 9.4595C14.4813 9.6715 14.5346 10.0142 14.38 10.2855L13.1666 12.3875C13.0906 12.5193 12.9718 12.6211 12.8299 12.676C12.688 12.731 12.5316 12.7357 12.3866 12.6895L11.162 12.2995C10.8441 12.5337 10.501 12.7318 10.1393 12.8902L9.86396 14.1428C9.83145 14.2912 9.74922 14.4241 9.63089 14.5194C9.51256 14.6147 9.36523 14.6667 9.2133 14.6668ZM7.9973 5.3335C7.29005 5.3335 6.61178 5.61445 6.11168 6.11454C5.61158 6.61464 5.33063 7.29292 5.33063 8.00016C5.33063 8.70741 5.61158 9.38568 6.11168 9.88578C6.61178 10.3859 7.29005 10.6668 7.9973 10.6668C8.70454 10.6668 9.38282 10.3859 9.88291 9.88578C10.383 9.38568 10.664 8.70741 10.664 8.00016C10.664 7.29292 10.383 6.61464 9.88291 6.11454C9.38282 5.61445 8.70454 5.3335 7.9973 5.3335Z" fill="#868686"/>
</svg>
