<svg width="22" height="22" viewBox="0 0 22 22" fill="none" xmlns="http://www.w3.org/2000/svg">
<path d="M1.83718 20.1666L3.07651 15.6126C2.25988 14.2127 1.83085 12.6206 1.83351 10.9999C1.83351 5.93717 5.93743 1.83325 11.0002 1.83325C16.0629 1.83325 20.1668 5.93717 20.1668 10.9999C20.1668 16.0627 16.0629 20.1666 11.0002 20.1666C9.38022 20.1692 7.78878 19.7405 6.38934 18.9245L1.83718 20.1666ZM7.69193 6.69892C7.57355 6.70627 7.45788 6.73745 7.35184 6.79059C7.2524 6.8469 7.16163 6.91729 7.08234 6.99959C6.97234 7.10317 6.91001 7.193 6.84309 7.28009C6.5043 7.721 6.32207 8.26222 6.32518 8.81825C6.32701 9.26742 6.44434 9.70467 6.62768 10.1135C7.00259 10.9403 7.61951 11.8158 8.43443 12.627C8.63059 12.8223 8.82218 13.0184 9.02843 13.2008C10.0399 14.0913 11.2452 14.7335 12.5484 15.0763L13.07 15.1561C13.2396 15.1653 13.4092 15.1524 13.5797 15.1442C13.8466 15.1304 14.1073 15.0581 14.3433 14.9324C14.4633 14.8706 14.5805 14.8033 14.6943 14.7308C14.6943 14.7308 14.7338 14.7051 14.8089 14.6483C14.9327 14.5566 15.0088 14.4915 15.1114 14.3843C15.1875 14.3054 15.2535 14.2128 15.3039 14.1074C15.3754 13.958 15.4469 13.6729 15.4763 13.4355C15.4983 13.254 15.4918 13.155 15.4891 13.0936C15.4854 12.9955 15.4038 12.8938 15.3149 12.8507L14.7814 12.6114C14.7814 12.6114 13.9839 12.264 13.4972 12.0422C13.4459 12.0198 13.3909 12.0071 13.3349 12.0046C13.2722 11.9981 13.2088 12.0052 13.1491 12.0253C13.0893 12.0454 13.0345 12.078 12.9884 12.121V12.1192C12.9838 12.1192 12.9224 12.1714 12.2597 12.9744C12.2216 13.0255 12.1692 13.0642 12.1092 13.0854C12.0491 13.1066 11.984 13.1095 11.9223 13.0936C11.8626 13.0776 11.8041 13.0574 11.7473 13.0331C11.6336 12.9854 11.5942 12.9671 11.5163 12.9332L11.5117 12.9313C10.9873 12.7024 10.5017 12.3931 10.0725 12.0147C9.95701 11.9138 9.84976 11.8038 9.73976 11.6975C9.37912 11.3521 9.06483 10.9614 8.80476 10.5352L8.75068 10.4481C8.71183 10.3896 8.68042 10.3264 8.65718 10.2602C8.62234 10.1254 8.71309 10.0173 8.71309 10.0173C8.71309 10.0173 8.93584 9.77342 9.03943 9.64142C9.12567 9.53171 9.20614 9.41759 9.28051 9.2995C9.38868 9.12534 9.42259 8.94659 9.36576 8.80817C9.10909 8.18117 8.84326 7.55692 8.57009 6.93725C8.51601 6.81442 8.35559 6.72642 8.20984 6.709C8.16034 6.7035 8.11084 6.698 8.06134 6.69434C7.93824 6.68822 7.81488 6.68944 7.69193 6.698V6.69892Z" fill="#00E676"/>
</svg>
