<svg width="47" height="47" viewBox="0 0 47 47" fill="none" xmlns="http://www.w3.org/2000/svg">
<path d="M15.3925 2.55435L21.1332 9.91342L22.1068 10.3877H44.324V43.7645H2.67598V2.55435H15.3925ZM15.3925 1.2297e-06H3.35714C2.46677 1.2297e-06 1.61287 0.412649 0.983284 1.14717C0.353698 1.88168 0 2.8779 0 3.91667V43.0833C0 44.1221 0.353698 45.1183 0.983284 45.8528C1.61287 46.5874 2.46677 47 3.35714 47H43.6429C44.5332 47 45.3871 46.5874 46.0167 45.8528C46.6463 45.1183 47 44.1221 47 43.0833V11.75C47 10.7112 46.6463 9.71502 46.0167 8.9805C45.3871 8.24598 44.5332 7.83333 43.6429 7.83333H23.5L17.7761 1.15542C17.4638 0.78888 17.0924 0.498079 16.6833 0.299776C16.2742 0.101474 15.8355 -0.000408296 15.3925 1.2297e-06Z" fill="#ECECEC"/>
<path d="M16.5 1.5H3.9774C2.8817 1.5 1.98998 2.38164 1.97753 3.47728L1.52299 43.4773C1.51033 44.5907 2.4094 45.5 3.52286 45.5H43.5C44.6046 45.5 45.5 44.6046 45.5 43.5V11C45.5 9.89543 44.6046 9 43.5 9H23L16.5 1.5Z" fill="#ECECEC"/>
</svg>
