<svg width="16" height="16" viewBox="0 0 16 16" fill="none" xmlns="http://www.w3.org/2000/svg">
<g clip-path="url(#clip0_135_1785)">
<path d="M7.96004 8.12429C11.5512 8.12429 14.4756 7.35096 14.6667 6.37318V3.81763C14.4756 4.79541 11.5556 5.56874 7.96004 5.56874C6.20834 5.60259 4.46148 5.37338 2.77782 4.88874V3.99985C4.46194 4.48148 6.20879 4.70771 7.96004 4.67096C11.5556 4.67985 14.4534 3.90652 14.6667 2.93763C14.5778 1.42207 10.4534 1.01318 8.00004 1.01318C5.54671 1.01318 1.33337 1.42652 1.33337 2.98207V13.0176C1.33337 14.5687 5.52449 14.9865 8.00004 14.9865C10.4756 14.9865 14.6667 14.5732 14.6667 13.0176V10.7065C14.4756 11.6798 11.5556 12.4443 7.96004 12.4443C6.20946 12.4854 4.46262 12.2636 2.77782 11.7865V10.8976C4.46262 11.3748 6.20946 11.5965 7.96004 11.5554C11.5556 11.5554 14.4756 10.791 14.6667 9.81763V7.26207C14.4756 8.23985 11.5556 9.01318 7.96004 9.01318C6.20879 9.04993 4.46194 8.82371 2.77782 8.34207V7.45318C4.46194 7.93482 6.20879 8.16104 7.96004 8.12429Z" fill="#868686"/>
</g>
<defs>
<clipPath id="clip0_135_1785">
<rect width="16" height="16" fill="white"/>
</clipPath>
</defs>
</svg>
