<svg width="30" height="30" viewBox="0 0 30 30" fill="none" xmlns="http://www.w3.org/2000/svg">
<path d="M23.3333 21.4583C23.3333 21.7575 23.0908 22 22.7917 22H10.875C10.5758 22 10.3333 21.7575 10.3333 21.4583V20.375C10.3333 20.0758 10.5758 19.8333 10.875 19.8333H22.7917C23.0908 19.8333 23.3333 20.0758 23.3333 20.375V21.4583ZM8.16667 21.4583C8.16667 21.7575 7.92415 22 7.625 22H6.54167C6.24251 22 6 21.7575 6 21.4583V20.375C6 20.0758 6.24251 19.8333 6.54167 19.8333H7.625C7.92415 19.8333 8.16667 20.0758 8.16667 20.375V21.4583ZM23.3333 16.0417C23.3333 16.3408 23.0908 16.5833 22.7917 16.5833H10.875C10.5758 16.5833 10.3333 16.3408 10.3333 16.0417V14.9583C10.3333 14.6592 10.5758 14.4167 10.875 14.4167H22.7917C23.0908 14.4167 23.3333 14.6592 23.3333 14.9583V16.0417ZM8.16667 16.0417C8.16667 16.3408 7.92415 16.5833 7.625 16.5833H6.54167C6.24251 16.5833 6 16.3408 6 16.0417V14.9583C6 14.6592 6.24251 14.4167 6.54167 14.4167H7.625C7.92415 14.4167 8.16667 14.6592 8.16667 14.9583V16.0417ZM23.3333 10.625C23.3333 10.9242 23.0908 11.1667 22.7917 11.1667H10.8999C10.6008 11.1667 10.3583 10.9242 10.3583 10.625V9.54167C10.3583 9.24251 10.6008 9 10.8999 9H22.7917C23.0908 9 23.3333 9.24251 23.3333 9.54167V10.625ZM8.16667 10.625C8.16667 10.9242 7.92415 11.1667 7.625 11.1667H6.54167C6.24251 11.1667 6 10.9242 6 10.625V9.54167C6 9.24251 6.24251 9 6.54167 9H7.625C7.92415 9 8.16667 9.24251 8.16667 9.54167V10.625Z" fill="black"/>
</svg>
