<svg width="16" height="18" viewBox="0 0 16 18" fill="none" xmlns="http://www.w3.org/2000/svg">
<path d="M0.297438 5.53639V2.34391C0.297438 2.26908 0.377769 2.22114 0.444966 2.25407C7.20406 5.56581 12.9135 3.71266 15.2414 2.27913C15.3094 2.23725 15.3965 2.28666 15.3965 2.36653V5.70416C9.86018 8.89174 2.81395 7.21406 0.297438 5.53639Z" fill="#868686" stroke="#868686" stroke-width="0.429742"/>
<path d="M15.3434 2.34874C15.3434 2.5673 15.1971 2.81857 14.8289 3.08352C14.4659 3.34471 13.9264 3.58907 13.2398 3.79804C11.8693 4.21513 9.9627 4.47639 7.84718 4.47639C5.73166 4.47639 3.82504 4.21513 2.4546 3.79804C1.768 3.58907 1.22847 3.34471 0.865477 3.08352C0.497265 2.81857 0.350974 2.5673 0.350974 2.34874C0.350974 2.13018 0.497265 1.87892 0.865477 1.61397C1.22847 1.35278 1.768 1.10841 2.4546 0.899448C3.82504 0.482357 5.73166 0.221097 7.84718 0.221097C9.9627 0.221097 11.8693 0.482357 13.2398 0.899448C13.9264 1.10841 14.4659 1.35278 14.8289 1.61397C15.1971 1.87892 15.3434 2.13018 15.3434 2.34874Z" fill="white" stroke="#868686" stroke-width="0.429742"/>
<path d="M0.245939 10.6733V7.98412C0.245939 7.90929 0.326225 7.86133 0.393425 7.89424C7.1542 11.2061 12.9676 9.35188 15.3001 7.91829C15.3681 7.87647 15.4552 7.92592 15.4552 8.00578V10.8401C9.91884 14.0277 2.76245 12.351 0.245939 10.6733Z" fill="#868686" stroke="#868686" stroke-width="0.429742"/>
<path d="M1.47164 7.15653C0.421499 6.84149 0.193027 7.39604 0.223682 7.92013C0.239314 8.18739 0.428438 8.40364 0.66913 8.52084C5.19869 10.7266 12.4329 10.4791 15.0616 8.4555C15.2947 8.27605 15.484 8.01849 15.4658 7.72488C15.4351 7.23126 14.9778 6.84348 13.5509 7.49205C7.84681 9.50526 3.14931 7.65983 1.47164 7.15653Z" fill="#868686" stroke="#868686" stroke-width="0.429742"/>
<path d="M0.245939 15.8091V13.1199C0.245939 13.0451 0.326225 12.9971 0.393425 13.0301C7.1542 16.3419 12.9676 14.4877 15.3001 13.0541C15.3681 13.0123 15.4552 13.0617 15.4552 13.1416V15.9759C9.91884 19.1635 2.76245 17.4868 0.245939 15.8091Z" fill="#868686" stroke="#868686" stroke-width="0.429742"/>
<path d="M1.47164 12.2924C0.421499 11.9773 0.193027 12.5319 0.223682 13.056C0.239314 13.3232 0.428438 13.5395 0.66913 13.6567C5.19869 15.8624 12.4329 15.615 15.0616 13.5913C15.2947 13.4119 15.484 13.1543 15.4658 12.8607C15.4351 12.3671 14.9778 11.9793 13.5509 12.6279C7.84681 14.6411 3.14931 12.7957 1.47164 12.2924Z" fill="#868686" stroke="#868686" stroke-width="0.429742"/>
</svg>
