<svg width="18" height="18" viewBox="0 0 18 18" fill="none" xmlns="http://www.w3.org/2000/svg">
<path d="M14.6666 6.0041L11.361 2.4751H4.57745C3.98185 2.4751 3.49902 2.95793 3.49902 3.55353V14.3235C3.49902 14.9124 3.9714 15.3924 4.5602 15.4018L12.4752 15.5285C13.6798 15.5478 14.6666 14.5766 14.6666 13.3719V6.0041Z" fill="#0F55D5"/>
<path d="M14.5397 6.17777C14.5409 5.88699 14.4279 5.60733 14.2249 5.39909L14.2249 5.39906L14.2201 5.39421L11.4076 2.58171L11.4076 2.58168L10.6255 2.80128V2.26206H10.6242H7.25049H6.12549H5.00049C4.55911 2.26206 4.13581 2.4374 3.82371 2.7495C3.51161 3.0616 3.33627 3.4849 3.33627 3.92628V14.0513C3.33627 14.4927 3.51161 14.916 3.82371 15.2281C4.13581 15.5402 4.55911 15.7155 5.00049 15.7155H12.8755C13.3169 15.7155 13.7402 15.5402 14.0523 15.2281C14.3644 14.916 14.5397 14.4927 14.5397 14.0513V12.9263V11.8013V6.17777ZM14.5397 6.17777C14.5397 6.17828 14.5397 6.1788 14.5397 6.17932L14.0005 6.17628M14.5397 6.17777V6.17628H14.0005M14.0005 6.17628C14.0013 6.02663 13.9432 5.88266 13.8388 5.7755L14.0005 6.17628Z" stroke="#0F55D5" stroke-width="1.07843"/>
<path d="M10.6255 12.3638H7.25049C7.1013 12.3638 6.95823 12.3045 6.85274 12.199C6.74725 12.0935 6.68799 11.9505 6.68799 11.8013C6.68799 11.6521 6.74725 11.509 6.85274 11.4035C6.95823 11.298 7.1013 11.2388 7.25049 11.2388H10.6255C10.7747 11.2388 10.9177 11.298 11.0232 11.4035C11.1287 11.509 11.188 11.6521 11.188 11.8013C11.188 11.9505 11.1287 12.0935 11.0232 12.199C10.9177 12.3045 10.7747 12.3638 10.6255 12.3638ZM10.6255 10.1138H7.25049C7.1013 10.1138 6.95823 10.0545 6.85274 9.94902C6.74725 9.84353 6.68799 9.70045 6.68799 9.55127C6.68799 9.40208 6.74725 9.25901 6.85274 9.15352C6.95823 9.04803 7.1013 8.98877 7.25049 8.98877H10.6255C10.7747 8.98877 10.9177 9.04803 11.0232 9.15352C11.1287 9.25901 11.188 9.40208 11.188 9.55127C11.188 9.70045 11.1287 9.84353 11.0232 9.94902C10.9177 10.0545 10.7747 10.1138 10.6255 10.1138Z" fill="white"/>
</svg>
