<svg width="30" height="30" viewBox="0 0 30 30" fill="none" xmlns="http://www.w3.org/2000/svg">
<g clip-path="url(#clip0_91_1653)">
<path d="M15.5242 11.2021C16.6288 11.2021 17.5242 10.3067 17.5242 9.20215C17.5242 8.09758 16.6288 7.20215 15.5242 7.20215C14.4197 7.20215 13.5242 8.09758 13.5242 9.20215C13.5242 10.3067 14.4197 11.2021 15.5242 11.2021Z" fill="#14161A"/>
<path d="M15.5242 17.4692C16.6288 17.4692 17.5242 16.5738 17.5242 15.4692C17.5242 14.3647 16.6288 13.4692 15.5242 13.4692C14.4197 13.4692 13.5242 14.3647 13.5242 15.4692C13.5242 16.5738 14.4197 17.4692 15.5242 17.4692Z" fill="#14161A"/>
<path d="M15.5242 23.7358C16.6288 23.7358 17.5242 22.8404 17.5242 21.7358C17.5242 20.6313 16.6288 19.7358 15.5242 19.7358C14.4197 19.7358 13.5242 20.6313 13.5242 21.7358C13.5242 22.8404 14.4197 23.7358 15.5242 23.7358Z" fill="#14161A"/>
</g>
<defs>
<clipPath id="clip0_91_1653">
<rect width="22.4483" height="26.9379" fill="white" transform="translate(4.30005 2)"/>
</clipPath>
</defs>
</svg>
