<svg width="162" height="162" viewBox="0 0 162 162" fill="none" xmlns="http://www.w3.org/2000/svg">
<path d="M141.756 113.388C147.677 116.545 155.133 114.321 157.37 107.994C162.799 92.6331 163.501 75.8908 159.224 59.9751C153.888 40.1235 141.204 23.0431 123.743 12.1958C106.282 1.34845 85.3497 -2.4543 65.1889 1.55826C45.0282 5.57083 27.1471 17.0985 15.17 33.8049C3.19279 50.5113 -1.9845 71.1466 0.687413 91.5284C3.35934 111.91 13.6806 130.514 29.5592 143.568C45.4379 156.623 65.686 163.152 86.1998 161.833C102.646 160.775 118.277 154.735 131.082 144.661C136.356 140.513 136.069 132.737 131.178 128.143C126.288 123.548 118.652 123.922 113.122 127.723C104.753 133.477 94.924 136.921 84.6399 137.583C70.2802 138.507 56.1065 133.936 44.9915 124.798C33.8764 115.66 26.6516 102.637 24.7812 88.3698C22.9109 74.1026 26.535 59.6579 34.919 47.9634C43.303 36.2689 55.8197 28.1996 69.9323 25.3908C84.0448 22.582 98.6973 25.2439 110.92 32.837C123.143 40.4302 132.022 52.3864 135.757 66.2826C138.432 76.2348 138.325 86.6487 135.562 96.4228C133.737 102.88 135.835 110.232 141.756 113.388Z" fill="#E0E9FA"/>
<path d="M103.719 146.868C106.014 153.174 113.046 156.502 118.938 153.291C129.621 147.467 138.904 139.285 146.045 129.305C153.185 119.325 157.934 107.898 159.997 95.9065C161.135 89.2934 155.715 83.7119 149.006 83.575C142.297 83.4382 136.877 88.8294 135.316 95.3557C133.622 102.443 130.567 109.176 126.282 115.164C121.998 121.153 116.611 126.217 110.45 130.109C104.777 133.692 101.424 140.563 103.719 146.868Z" fill="#0F55D5"/>
</svg>
