<svg width="17" height="17" viewBox="0 0 17 17" fill="none" xmlns="http://www.w3.org/2000/svg">
<path d="M8.50014 1.21436C9.12321 1.21435 9.72246 1.45383 10.1739 1.88326C10.6254 2.31268 10.8945 2.8992 10.9257 3.5215L10.9287 3.64293H13.9644C14.1192 3.6431 14.268 3.70235 14.3805 3.80858C14.4931 3.91482 14.5608 4.06001 14.5698 4.21449C14.5789 4.36897 14.5287 4.52109 14.4293 4.63975C14.33 4.75842 14.1891 4.83469 14.0355 4.85296L13.9644 4.85721H13.449L12.7325 13.693C12.6863 14.2631 12.4272 14.795 12.0067 15.1828C11.5861 15.5705 11.0351 15.7858 10.463 15.7858H6.53725C5.96522 15.7858 5.41414 15.5705 4.99363 15.1828C4.57311 14.795 4.31397 14.2631 4.26775 13.693L3.55071 4.85721H3.03585C2.88714 4.85719 2.74361 4.8026 2.63249 4.70378C2.52136 4.60496 2.45036 4.46879 2.43296 4.32111L2.42871 4.25007C2.42873 4.10136 2.48333 3.95783 2.58215 3.8467C2.68096 3.73557 2.81713 3.66458 2.96482 3.64718L3.03585 3.64293H6.07157C6.07157 2.99883 6.32743 2.38111 6.78288 1.92567C7.23833 1.47022 7.85604 1.21436 8.50014 1.21436ZM7.13407 6.83043C7.02403 6.83043 6.91772 6.87028 6.83479 6.94261C6.75186 7.01493 6.69793 7.11484 6.68296 7.22386L6.67871 7.28578V12.1429L6.68296 12.2049C6.69796 12.3138 6.7519 12.4137 6.83483 12.486C6.91776 12.5583 7.02405 12.5981 7.13407 12.5981C7.24408 12.5981 7.35038 12.5583 7.43331 12.486C7.51623 12.4137 7.57018 12.3138 7.58518 12.2049L7.58942 12.1429V7.28578L7.58518 7.22386C7.57021 7.11484 7.51628 7.01493 7.43335 6.94261C7.35042 6.87028 7.2441 6.83043 7.13407 6.83043ZM9.86621 6.83043C9.75617 6.83043 9.64986 6.87028 9.56693 6.94261C9.484 7.01493 9.43007 7.11484 9.4151 7.22386L9.41085 7.28578V12.1429L9.4151 12.2049C9.4301 12.3138 9.48405 12.4137 9.56697 12.486C9.6499 12.5583 9.75619 12.5981 9.86621 12.5981C9.97623 12.5981 10.0825 12.5583 10.1654 12.486C10.2484 12.4137 10.3023 12.3138 10.3173 12.2049L10.3216 12.1429V7.28578L10.3173 7.22386C10.3024 7.11484 10.2484 7.01493 10.1655 6.94261C10.0826 6.87028 9.97625 6.83043 9.86621 6.83043ZM8.50014 2.42864C8.19379 2.42854 7.89872 2.54425 7.67409 2.75255C7.44946 2.96086 7.31187 3.24637 7.28889 3.55186L7.28585 3.64293H9.71442L9.71139 3.55186C9.68841 3.24637 9.55082 2.96086 9.32619 2.75255C9.10155 2.54425 8.80649 2.42854 8.50014 2.42864Z" fill="#868686"/>
</svg>
