<svg width="36" height="36" viewBox="0 0 36 36" fill="none" xmlns="http://www.w3.org/2000/svg">
<path d="M12.5662 5.75L16.4137 9.58625L17.0662 10.25H31.5V28.25H4.5V5.75H12.5662ZM12.5662 3.5H4.5C3.90326 3.5 3.33097 3.73705 2.90901 4.15901C2.48705 4.58097 2.25 5.15326 2.25 5.75V28.25C2.25 28.8467 2.48705 29.419 2.90901 29.841C3.33097 30.2629 3.90326 30.5 4.5 30.5H31.5C32.0967 30.5 32.669 30.2629 33.091 29.841C33.5129 29.419 33.75 28.8467 33.75 28.25V10.25C33.75 9.65326 33.5129 9.08097 33.091 8.65901C32.669 8.23705 32.0967 8 31.5 8H18L14.1637 4.16375C13.9544 3.95319 13.7055 3.78613 13.4313 3.67221C13.1572 3.55829 12.8632 3.49977 12.5662 3.5Z" fill="#8FBEFF"/>
<path d="M3.5 28.25V5.75C3.5 5.19772 3.94772 4.75 4.5 4.75H13.5L17.5 8.75H31.5C32.0523 8.75 32.5 9.19772 32.5 9.75V28.25C32.5 28.8023 32.0523 29.25 31.5 29.25H4.5C3.94772 29.25 3.5 28.8023 3.5 28.25Z" fill="#8FBEFF"/>
</svg>
