<svg width="27" height="27" viewBox="0 0 27 27" fill="none" xmlns="http://www.w3.org/2000/svg">
<path d="M21.9996 9.0064L17.0413 3.71289H6.86594C5.97254 3.71289 5.24829 4.43714 5.24829 5.33054V21.4856C5.24829 22.3689 5.95686 23.0889 6.84006 23.103L18.7126 23.293C20.5194 23.3219 21.9996 21.8651 21.9996 20.0581V9.0064Z" fill="#0F55D5"/>
<path d="M17.111 3.87277L17.111 3.87282L21.3297 8.09157L21.337 8.09883L21.3369 8.09888C21.6414 8.41113 21.8109 8.83043 21.8092 9.26644M17.111 3.87277L21.0004 9.26466M17.111 3.87277L17.1037 3.86559C16.7914 3.56115 16.372 3.39158 15.936 3.39334M17.111 3.87277L15.9379 4.20216M21.8092 9.26644C21.8092 9.26737 21.8092 9.2683 21.8092 9.26922L21.0004 9.26466M21.8092 9.26644V9.26466H21.0004M21.8092 9.26644V17.7022V19.3897V21.0772C21.8092 21.7392 21.5462 22.3742 21.078 22.8423C20.6099 23.3105 19.9749 23.5735 19.3129 23.5735H7.50037C6.8383 23.5735 6.20335 23.3105 5.7352 22.8423C5.26705 22.3742 5.00404 21.7392 5.00404 21.0772V5.88966C5.00404 5.2276 5.26705 4.59265 5.7352 4.12449C6.20335 3.65634 6.8383 3.39334 7.50037 3.39334H9.18787H10.8754H15.936M21.0004 9.26466V17.7022V19.3897V21.0772C21.0004 21.5247 20.8226 21.9539 20.5061 22.2704C20.1896 22.5869 19.7604 22.7647 19.3129 22.7647H7.50037C7.05281 22.7647 6.62359 22.5869 6.30712 22.2704C5.99066 21.9539 5.81287 21.5247 5.81287 21.0772V5.88966C5.81287 5.44211 5.99066 5.01289 6.30712 4.69642C6.62359 4.37995 7.05281 4.20216 7.50037 4.20216H9.18787H10.8754H15.9379M15.936 3.39334C15.9351 3.39334 15.9342 3.39335 15.9333 3.39335L15.9379 4.20216M15.936 3.39334H15.9379V4.20216" stroke="#0F55D5" stroke-width="1.61765"/>
<path d="M15.9377 18.5459H10.8752C10.6515 18.5459 10.4369 18.457 10.2786 18.2988C10.1204 18.1405 10.0315 17.9259 10.0315 17.7021C10.0315 17.4784 10.1204 17.2638 10.2786 17.1055C10.4369 16.9473 10.6515 16.8584 10.8752 16.8584H15.9377C16.1615 16.8584 16.3761 16.9473 16.5344 17.1055C16.6926 17.2638 16.7815 17.4784 16.7815 17.7021C16.7815 17.9259 16.6926 18.1405 16.5344 18.2988C16.3761 18.457 16.1615 18.5459 15.9377 18.5459ZM15.9377 15.1709H10.8752C10.6515 15.1709 10.4369 15.082 10.2786 14.9238C10.1204 14.7655 10.0315 14.5509 10.0315 14.3271C10.0315 14.1034 10.1204 13.8888 10.2786 13.7305C10.4369 13.5723 10.6515 13.4834 10.8752 13.4834H15.9377C16.1615 13.4834 16.3761 13.5723 16.5344 13.7305C16.6926 13.8888 16.7815 14.1034 16.7815 14.3271C16.7815 14.5509 16.6926 14.7655 16.5344 14.9238C16.3761 15.082 16.1615 15.1709 15.9377 15.1709Z" fill="white"/>
</svg>
