<svg width="15" height="15" viewBox="0 0 15 15" fill="none" xmlns="http://www.w3.org/2000/svg">
<path d="M1.66667 2.08325C1.22464 2.08325 0.800716 2.25885 0.488155 2.57141C0.175595 2.88397 0 3.30789 0 3.74992L0 11.2499C0 11.6919 0.175595 12.1159 0.488155 12.4284C0.800716 12.741 1.22464 12.9166 1.66667 12.9166H5V2.08325H1.66667Z" fill="#009A49"/>
<path d="M5 2.08325H10V12.9166H5V2.08325Z" fill="#EEEEEE"/>
<path d="M13.3333 2.08325H10V12.9166H13.3333C13.7754 12.9166 14.1993 12.741 14.5118 12.4284C14.8244 12.1159 15 11.6919 15 11.2499V3.74992C15 3.30789 14.8244 2.88397 14.5118 2.57141C14.1993 2.25885 13.7754 2.08325 13.3333 2.08325Z" fill="#009A49"/>
</svg>
