<svg width="16" height="16" viewBox="0 0 16 16" fill="none" xmlns="http://www.w3.org/2000/svg">
<g clip-path="url(#clip0_197_3618)">
<path fill-rule="evenodd" clip-rule="evenodd" d="M7.64592 0.145917C7.69236 0.099354 7.74754 0.0624111 7.80828 0.0372047C7.86903 0.0119982 7.93415 -0.000976563 7.99992 -0.000976562C8.06568 -0.000976563 8.1308 0.0119982 8.19155 0.0372047C8.25229 0.0624111 8.30747 0.099354 8.35392 0.145917L10.3539 2.14592C10.4004 2.19241 10.4373 2.24759 10.4624 2.30833C10.4876 2.36907 10.5005 2.43417 10.5005 2.49992C10.5005 2.56566 10.4876 2.63076 10.4624 2.6915C10.4373 2.75224 10.4004 2.80743 10.3539 2.85392C10.3074 2.90041 10.2522 2.93728 10.1915 2.96244C10.1308 2.9876 10.0657 3.00055 9.99992 3.00055C9.93417 3.00055 9.86907 2.9876 9.80833 2.96244C9.74759 2.93728 9.6924 2.90041 9.64592 2.85392L8.49992 1.70692V5.49992C8.49992 5.63253 8.44724 5.7597 8.35347 5.85347C8.2597 5.94724 8.13252 5.99992 7.99992 5.99992C7.86731 5.99992 7.74013 5.94724 7.64636 5.85347C7.55259 5.7597 7.49992 5.63253 7.49992 5.49992V1.70692L6.35392 2.85392C6.26003 2.9478 6.13269 3.00055 5.99992 3.00055C5.86714 3.00055 5.7398 2.9478 5.64592 2.85392C5.55203 2.76003 5.49928 2.63269 5.49928 2.49992C5.49928 2.36714 5.55203 2.2398 5.64592 2.14592L7.64592 0.145917ZM7.99992 9.99992C8.13252 9.99992 8.2597 10.0526 8.35347 10.1464C8.44724 10.2401 8.49992 10.3673 8.49992 10.4999V14.2929L9.64592 13.1459C9.7398 13.052 9.86714 12.9993 9.99992 12.9993C10.1327 12.9993 10.26 13.052 10.3539 13.1459C10.4478 13.2398 10.5005 13.3671 10.5005 13.4999C10.5005 13.6327 10.4478 13.76 10.3539 13.8539L8.35392 15.8539C8.30747 15.9005 8.25229 15.9374 8.19155 15.9626C8.1308 15.9878 8.06568 16.0008 7.99992 16.0008C7.93415 16.0008 7.86903 15.9878 7.80828 15.9626C7.74754 15.9374 7.69236 15.9005 7.64592 15.8539L5.64592 13.8539C5.59943 13.8074 5.56255 13.7522 5.53739 13.6915C5.51223 13.6308 5.49928 13.5657 5.49928 13.4999C5.49928 13.4342 5.51223 13.3691 5.53739 13.3083C5.56255 13.2476 5.59943 13.1924 5.64592 13.1459C5.7398 13.052 5.86714 12.9993 5.99992 12.9993C6.06566 12.9993 6.13076 13.0122 6.1915 13.0374C6.25224 13.0626 6.30743 13.0994 6.35392 13.1459L7.49992 14.2929V10.4999C7.49992 10.3673 7.55259 10.2401 7.64636 10.1464C7.74013 10.0526 7.86731 9.99992 7.99992 9.99992ZM0.145917 8.35392C0.099354 8.30747 0.0624111 8.2523 0.0372047 8.19155C0.0119982 8.13081 -0.000976563 8.06568 -0.000976562 7.99992C-0.000976563 7.93415 0.0119982 7.86903 0.0372047 7.80828C0.0624111 7.74754 0.099354 7.69236 0.145917 7.64592L2.14592 5.64592C2.2398 5.55203 2.36714 5.49929 2.49992 5.49929C2.63269 5.49929 2.76003 5.55203 2.85392 5.64592C2.9478 5.7398 3.00055 5.86714 3.00055 5.99992C3.00055 6.13269 2.9478 6.26003 2.85392 6.35392L1.70692 7.49992H5.49992C5.63252 7.49992 5.7597 7.5526 5.85347 7.64636C5.94724 7.74013 5.99992 7.86731 5.99992 7.99992C5.99992 8.13253 5.94724 8.2597 5.85347 8.35347C5.7597 8.44724 5.63252 8.49992 5.49992 8.49992H1.70692L2.85392 9.64592C2.9478 9.7398 3.00055 9.86714 3.00055 9.99992C3.00055 10.1327 2.9478 10.26 2.85392 10.3539C2.76003 10.4478 2.63269 10.5005 2.49992 10.5005C2.36714 10.5005 2.2398 10.4478 2.14592 10.3539L0.145917 8.35392ZM9.99992 7.99992C9.99992 7.86731 10.0526 7.74013 10.1464 7.64636C10.2401 7.5526 10.3673 7.49992 10.4999 7.49992H14.2929L13.1459 6.35392C13.0994 6.30743 13.0626 6.25224 13.0374 6.1915C13.0122 6.13076 12.9993 6.06566 12.9993 5.99992C12.9993 5.93417 13.0122 5.86907 13.0374 5.80833C13.0626 5.74759 13.0994 5.6924 13.1459 5.64592C13.2398 5.55203 13.3671 5.49929 13.4999 5.49929C13.5657 5.49929 13.6308 5.51223 13.6915 5.53739C13.7522 5.56255 13.8074 5.59943 13.8539 5.64592L15.8539 7.64592C15.9005 7.69236 15.9374 7.74754 15.9626 7.80828C15.9878 7.86903 16.0008 7.93415 16.0008 7.99992C16.0008 8.06568 15.9878 8.13081 15.9626 8.19155C15.9374 8.2523 15.9005 8.30747 15.8539 8.35392L13.8539 10.3539C13.8074 10.4004 13.7522 10.4373 13.6915 10.4624C13.6308 10.4876 13.5657 10.5005 13.4999 10.5005C13.4342 10.5005 13.3691 10.4876 13.3083 10.4624C13.2476 10.4373 13.1924 10.4004 13.1459 10.3539C13.0994 10.3074 13.0626 10.2522 13.0374 10.1915C13.0122 10.1308 12.9993 10.0657 12.9993 9.99992C12.9993 9.93417 13.0122 9.86907 13.0374 9.80833C13.0626 9.74759 13.0994 9.6924 13.1459 9.64592L14.2929 8.49992H10.4999C10.3673 8.49992 10.2401 8.44724 10.1464 8.35347C10.0526 8.2597 9.99992 8.13253 9.99992 7.99992Z" fill="#868686"/>
</g>
<defs>
<clipPath id="clip0_197_3618">
<rect width="16" height="16" fill="white"/>
</clipPath>
</defs>
</svg>
