<svg width="23" height="27" viewBox="0 0 23 27" fill="none" xmlns="http://www.w3.org/2000/svg">
<g clip-path="url(#clip0_230_10491)">
<path d="M11.25 10.0918C11.8774 10.0918 12.386 9.58319 12.386 8.95577C12.386 8.32834 11.8774 7.81972 11.25 7.81972C10.6226 7.81972 10.1139 8.32834 10.1139 8.95577C10.1139 9.58319 10.6226 10.0918 11.25 10.0918Z" fill="#14161A"/>
<path d="M11.25 14.6359C11.8774 14.6359 12.386 14.1273 12.386 13.4999C12.386 12.8725 11.8774 12.3638 11.25 12.3638C10.6226 12.3638 10.1139 12.8725 10.1139 13.4999C10.1139 14.1273 10.6226 14.6359 11.25 14.6359Z" fill="#14161A"/>
<path d="M11.25 19.1801C11.8774 19.1801 12.386 18.6714 12.386 18.044C12.386 17.4166 11.8774 16.908 11.25 16.908C10.6226 16.908 10.1139 17.4166 10.1139 18.044C10.1139 18.6714 10.6226 19.1801 11.25 19.1801Z" fill="#14161A"/>
</g>
<defs>
<clipPath id="clip0_230_10491">
<rect width="22.4483" height="26.9379" fill="white" transform="scale(1.0023)"/>
</clipPath>
</defs>
</svg>
