<svg width="18" height="18" viewBox="0 0 18 18" fill="none" xmlns="http://www.w3.org/2000/svg">
<path d="M15.75 1.5H4.5C4.10218 1.5 3.72064 1.65804 3.43934 1.93934C3.15804 2.22064 3 2.60218 3 3V5.25H1.5V6.75H3V8.25H1.5V9.75H3V11.25H1.5V12.75H3V15C3 15.3978 3.15804 15.7794 3.43934 16.0607C3.72064 16.342 4.10218 16.5 4.5 16.5H15.75C15.9489 16.5 16.1397 16.421 16.2803 16.2803C16.421 16.1397 16.5 15.9489 16.5 15.75V2.25C16.5 2.05109 16.421 1.86032 16.2803 1.71967C16.1397 1.57902 15.9489 1.5 15.75 1.5ZM9.75 3.74925C10.986 3.74925 12 4.7625 12 5.99925C11.9978 6.59539 11.7601 7.1665 11.3386 7.58811C10.9172 8.00971 10.3461 8.24763 9.75 8.25C8.51475 8.25 7.5 7.23525 7.5 5.99925C7.5 4.7625 8.51475 3.74925 9.75 3.74925ZM14.25 13.5H5.25V12.9375C5.25 11.2732 7.27875 9.5625 9.75 9.5625C12.2213 9.5625 14.25 11.2732 14.25 12.9375V13.5Z" fill="#D6247D"/>
</svg>
