<svg width="16" height="16" viewBox="0 0 16 16" fill="none" xmlns="http://www.w3.org/2000/svg">
<path d="M9 4.5V1H5.5C5.10218 1 4.72064 1.15804 4.43934 1.43934C4.15804 1.72064 4 2.10218 4 2.5V5.207C5.25034 4.85134 6.58624 4.95004 7.77073 5.4856C8.95523 6.02116 9.91174 6.95896 10.4706 8.13264C11.0294 9.30633 11.1545 10.64 10.8236 11.8971C10.4927 13.1543 9.72726 14.2535 8.663 15H12.5C12.8978 15 13.2794 14.842 13.5607 14.5607C13.842 14.2794 14 13.8978 14 13.5V6H10.5C10.1022 6 9.72064 5.84196 9.43934 5.56066C9.15804 5.27936 9 4.89782 9 4.5ZM10 4.5V1.25L13.75 5H10.5C10.3674 5 10.2402 4.94732 10.1464 4.85355C10.0527 4.75979 10 4.63261 10 4.5ZM5.5 15C6.09095 15 6.67611 14.8836 7.22208 14.6575C7.76804 14.4313 8.26412 14.0998 8.68198 13.682C9.09984 13.2641 9.43131 12.768 9.65746 12.2221C9.8836 11.6761 10 11.0909 10 10.5C10 9.90905 9.8836 9.32389 9.65746 8.77792C9.43131 8.23196 9.09984 7.73588 8.68198 7.31802C8.26412 6.90016 7.76804 6.56869 7.22208 6.34254C6.67611 6.1164 6.09095 6 5.5 6C4.30653 6 3.16193 6.47411 2.31802 7.31802C1.47411 8.16193 1 9.30653 1 10.5C1 11.6935 1.47411 12.8381 2.31802 13.682C3.16193 14.5259 4.30653 15 5.5 15ZM7.854 10.146C7.94789 10.2399 8.00063 10.3672 8.00063 10.5C8.00063 10.6328 7.94789 10.7601 7.854 10.854C7.76011 10.9479 7.63278 11.0006 7.5 11.0006C7.36722 11.0006 7.23989 10.9479 7.146 10.854L6 9.707V12.5C6 12.6326 5.94732 12.7598 5.85355 12.8536C5.75979 12.9473 5.63261 13 5.5 13C5.36739 13 5.24021 12.9473 5.14645 12.8536C5.05268 12.7598 5 12.6326 5 12.5V9.707L3.854 10.854C3.76011 10.9479 3.63278 11.0006 3.5 11.0006C3.36722 11.0006 3.23989 10.9479 3.146 10.854C3.05211 10.7601 2.99937 10.6328 2.99937 10.5C2.99937 10.3672 3.05211 10.2399 3.146 10.146L5.146 8.146C5.23915 8.05293 5.36532 8.00045 5.497 8H5.503C5.63338 8.0006 5.75832 8.0523 5.851 8.144L5.854 8.147L7.854 10.147V10.146Z" fill="#868686"/>
</svg>
