<svg width="19" height="19" viewBox="0 0 19 19" fill="none" xmlns="http://www.w3.org/2000/svg">
<path d="M9.5 8.56818C7.09736 8.56818 5.18182 6.72081 5.18182 4.5C5.18182 2.27919 7.09736 0.431818 9.5 0.431818C11.9026 0.431818 13.8182 2.27919 13.8182 4.5C13.8182 6.72081 11.9026 8.56818 9.5 8.56818ZM18.5682 18V18.5682H17.9444H0.431818V18C0.431818 14.4011 3.53068 11.4318 7.38889 11.4318H11.6111C15.4683 11.4318 18.5682 14.4012 18.5682 18Z" stroke="#C9C9C9" stroke-width="0.833385"/>
<path d="M9.50013 9C6.88129 9 4.75013 6.981 4.75013 4.5C4.75013 2.019 6.88129 0 9.50013 0C12.119 0 14.2501 2.019 14.2501 4.5C14.2501 6.981 12.119 9 9.50013 9Z" fill="#C9C9C9"/>
<path d="M19 19.0001H17.9444H0V18.0001C0 14.1411 3.31444 11.0001 7.38889 11.0001H11.6111C15.6845 11.0001 19 14.1411 19 18.0001V19.0001Z" fill="#C9C9C9"/>
</svg>
