<svg width="375" height="80" viewBox="0 0 375 80" fill="none" xmlns="http://www.w3.org/2000/svg">
<g filter="url(#filter0_d_0_3)">
<path fill-rule="evenodd" clip-rule="evenodd" d="M188 44C203.225 44 216.644 36.2669 224.544 24.5142C232.554 12.5966 243.641 0 258 0H374C374.552 0 375 0.447715 375 1V79C375 79.5523 374.552 80 374 80H0.999995C0.44771 80 0 79.5523 0 79V0.999999C0 0.447714 0.447715 0 1 0H118C132.359 0 143.446 12.5966 151.456 24.5142C159.356 36.2669 172.775 44 188 44Z" fill="white"/>
</g>
<defs>
<filter id="filter0_d_0_3" x="-40" y="-32" width="455" height="160" filterUnits="userSpaceOnUse" color-interpolation-filters="sRGB">
<feFlood flood-opacity="0" result="BackgroundImageFix"/>
<feColorMatrix in="SourceAlpha" type="matrix" values="0 0 0 0 0 0 0 0 0 0 0 0 0 0 0 0 0 0 127 0" result="hardAlpha"/>
<feOffset dy="8"/>
<feGaussianBlur stdDeviation="20"/>
<feComposite in2="hardAlpha" operator="out"/>
<feColorMatrix type="matrix" values="0 0 0 0 0.133222 0 0 0 0 0.360153 0 0 0 0 0.775111 0 0 0 0.19 0"/>
<feBlend mode="normal" in2="BackgroundImageFix" result="effect1_dropShadow_0_3"/>
<feBlend mode="normal" in="SourceGraphic" in2="effect1_dropShadow_0_3" result="shape"/>
</filter>
</defs>
</svg>
