<svg width="16" height="9" viewBox="0 0 16 9" fill="none" xmlns="http://www.w3.org/2000/svg">
<path d="M10.5 4.09095C10.5 4.58412 10.2366 5.05709 9.76777 5.40582C9.29893 5.75454 8.66304 5.95045 8 5.95045C7.33696 5.95045 6.70107 5.75454 6.23223 5.40582C5.76339 5.05709 5.5 4.58412 5.5 4.09095C5.5 3.59778 5.76339 3.12481 6.23223 2.77608C6.70107 2.42736 7.33696 2.23145 8 2.23145C8.66304 2.23145 9.29893 2.42736 9.76777 2.77608C10.2366 3.12481 10.5 3.59778 10.5 4.09095Z" fill="#D0D2D1"/>
<path fill-rule="evenodd" clip-rule="evenodd" d="M0 4.09091C0 4.09091 3 0 8 0C13 0 16 4.09091 16 4.09091C16 4.09091 13 8.18182 8 8.18182C3 8.18182 0 4.09091 0 4.09091ZM8 6.69421C8.92826 6.69421 9.8185 6.41994 10.4749 5.93172C11.1313 5.44351 11.5 4.78135 11.5 4.09091C11.5 3.40047 11.1313 2.73831 10.4749 2.25009C9.8185 1.76188 8.92826 1.4876 8 1.4876C7.07174 1.4876 6.1815 1.76188 5.52513 2.25009C4.86875 2.73831 4.5 3.40047 4.5 4.09091C4.5 4.78135 4.86875 5.44351 5.52513 5.93172C6.1815 6.41994 7.07174 6.69421 8 6.69421Z" fill="#868686"/>
</svg>
