<svg width="18" height="18" viewBox="0 0 18 18" fill="none" xmlns="http://www.w3.org/2000/svg">
<path d="M9 10.9688C10.6506 10.9688 11.9883 9.64688 11.9883 8.01562V4.07812C11.9883 2.44687 10.6506 1.125 9 1.125C7.34941 1.125 6.01172 2.44687 6.01172 4.07812V8.01562C6.01172 9.64688 7.34941 10.9688 9 10.9688ZM14.8008 7.98047C14.8008 7.90312 14.7375 7.83984 14.6602 7.83984H13.6055C13.5281 7.83984 13.4648 7.90312 13.4648 7.98047C13.4648 10.4467 11.4662 12.4453 9 12.4453C6.53379 12.4453 4.53516 10.4467 4.53516 7.98047C4.53516 7.90312 4.47187 7.83984 4.39453 7.83984H3.33984C3.2625 7.83984 3.19922 7.90312 3.19922 7.98047C3.19922 10.9459 5.42461 13.3928 8.29688 13.7391V15.5391H5.74277C5.50195 15.5391 5.30859 15.7904 5.30859 16.1016V16.7344C5.30859 16.8117 5.35781 16.875 5.41758 16.875H12.5824C12.6422 16.875 12.6914 16.8117 12.6914 16.7344V16.1016C12.6914 15.7904 12.498 15.5391 12.2572 15.5391H9.63281V13.7479C12.5385 13.4314 14.8008 10.9705 14.8008 7.98047Z" fill="#AF30C3"/>
</svg>
