<svg width="16" height="16" viewBox="0 0 16 16" fill="none" xmlns="http://www.w3.org/2000/svg">
<path d="M3.66899 3.08483L3.66699 4.50016V11.5028C3.66699 12.0775 3.89527 12.6286 4.30159 13.0349C4.70792 13.4412 5.25902 13.6695 5.83366 13.6695H11.5777C11.4742 13.962 11.2825 14.2152 11.0292 14.3942C10.7759 14.5733 10.4732 14.6695 10.163 14.6695H5.83366C4.99381 14.6695 4.18835 14.3359 3.59449 13.742C3.00062 13.1481 2.66699 12.3427 2.66699 11.5028V4.50016C2.66699 3.84683 3.08499 3.29016 3.66899 3.08483ZM11.8337 1.3335C12.0306 1.3335 12.2257 1.37229 12.4077 1.44768C12.5897 1.52306 12.755 1.63355 12.8943 1.77284C13.0336 1.91212 13.1441 2.07748 13.2195 2.25947C13.2949 2.44146 13.3337 2.63651 13.3337 2.8335V11.5002C13.3337 11.6971 13.2949 11.8922 13.2195 12.0742C13.1441 12.2562 13.0336 12.4215 12.8943 12.5608C12.755 12.7001 12.5897 12.8106 12.4077 12.886C12.2257 12.9614 12.0306 13.0002 11.8337 13.0002H5.83366C5.43583 13.0002 5.0543 12.8421 4.773 12.5608C4.49169 12.2795 4.33366 11.898 4.33366 11.5002V2.8335C4.33366 2.43567 4.49169 2.05414 4.773 1.77284C5.0543 1.49153 5.43583 1.3335 5.83366 1.3335H11.8337Z" fill="#868686"/>
</svg>
