<svg width="16" height="16" viewBox="0 0 16 16" fill="none" xmlns="http://www.w3.org/2000/svg">
<path d="M13.3335 4.00008H8.00016L7.06016 3.06008C6.80683 2.80675 6.46683 2.66675 6.1135 2.66675H2.66683C1.92683 2.66675 1.34016 3.26008 1.34016 4.00008L1.3335 12.0001C1.3335 12.7401 1.92683 13.3334 2.66683 13.3334H13.3335C14.0668 13.3334 14.6668 12.7334 14.6668 12.0001V5.33341C14.6668 4.60008 14.0668 4.00008 13.3335 4.00008ZM12.0002 9.33341H10.6668V10.6667C10.6668 11.0334 10.3668 11.3334 10.0002 11.3334C9.6335 11.3334 9.3335 11.0334 9.3335 10.6667V9.33341H8.00016C7.6335 9.33341 7.3335 9.03341 7.3335 8.66675C7.3335 8.30008 7.6335 8.00008 8.00016 8.00008H9.3335V6.66675C9.3335 6.30008 9.6335 6.00008 10.0002 6.00008C10.3668 6.00008 10.6668 6.30008 10.6668 6.66675V8.00008H12.0002C12.3668 8.00008 12.6668 8.30008 12.6668 8.66675C12.6668 9.03341 12.3668 9.33341 12.0002 9.33341Z" fill="#868686"/>
</svg>
