<svg width="34" height="30" viewBox="0 0 34 30" fill="none" xmlns="http://www.w3.org/2000/svg">
<path d="M24 15.75C24.4142 15.75 24.75 15.4142 24.75 15C24.75 14.5858 24.4142 14.25 24 14.25V15.75ZM9.46967 14.4697C9.17678 14.7626 9.17678 15.2374 9.46967 15.5303L14.2426 20.3033C14.5355 20.5962 15.0104 20.5962 15.3033 20.3033C15.5962 20.0104 15.5962 19.5355 15.3033 19.2426L11.0607 15L15.3033 10.7574C15.5962 10.4645 15.5962 9.98959 15.3033 9.6967C15.0104 9.40381 14.5355 9.40381 14.2426 9.6967L9.46967 14.4697ZM24 14.25H10V15.75H24V14.25Z" fill="#14161A"/>
</svg>
