<svg width="45" height="45" viewBox="0 0 45 45" fill="none" xmlns="http://www.w3.org/2000/svg">
<path d="M42.75 0H9C7.80653 0 6.66193 0.474106 5.81802 1.31802C4.97411 2.16193 4.5 3.30653 4.5 4.5V11.25H0V15.75H4.5V20.25H0V24.75H4.5V29.25H0V33.75H4.5V40.5C4.5 41.6935 4.97411 42.8381 5.81802 43.682C6.66193 44.5259 7.80653 45 9 45H42.75C43.3467 45 43.919 44.7629 44.341 44.341C44.7629 43.919 45 43.3467 45 42.75V2.25C45 1.65326 44.7629 1.08097 44.341 0.65901C43.919 0.237053 43.3467 0 42.75 0ZM24.75 6.74775C28.458 6.74775 31.5 9.7875 31.5 13.4978C31.4935 15.2862 30.7803 16.9995 29.5159 18.2643C28.2515 19.5291 26.5384 20.2429 24.75 20.25C21.0443 20.25 18 17.2057 18 13.4978C18 9.7875 21.0443 6.74775 24.75 6.74775ZM38.25 36H11.25V34.3125C11.25 29.3197 17.3363 24.1875 24.75 24.1875C32.1637 24.1875 38.25 29.3197 38.25 34.3125V36Z" fill="#ECECEC"/>
</svg>
