<svg width="18" height="18" viewBox="0 0 18 18" fill="none" xmlns="http://www.w3.org/2000/svg">
<path d="M16.15 4.675L13 6.45V4C13 3.73478 12.8946 3.48043 12.7071 3.29289C12.5196 3.10536 12.2652 3 12 3H3C2.46957 3 1.96086 3.21071 1.58579 3.58579C1.21071 3.96086 1 4.46957 1 5V13C1 13.5304 1.21071 14.0391 1.58579 14.4142C1.96086 14.7893 2.46957 15 3 15H12C12.2652 15 12.5196 14.8946 12.7071 14.7071C12.8946 14.5196 13 14.2652 13 14V11.54L16.15 13.315C16.2308 13.3678 16.3241 13.3984 16.4205 13.4037C16.5169 13.4091 16.613 13.3889 16.6991 13.3453C16.7853 13.3018 16.8584 13.2363 16.9112 13.1555C16.964 13.0747 16.9947 12.9814 17 12.885V5.1C16.9938 5.00404 16.9626 4.91137 16.9095 4.83124C16.8563 4.75111 16.7831 4.68631 16.6971 4.6433C16.6111 4.6003 16.5153 4.5806 16.4193 4.58616C16.3233 4.59172 16.2305 4.62235 16.15 4.675Z" fill="#04D604"/>
</svg>
