<svg width="16" height="16" viewBox="0 0 16 16" fill="none" xmlns="http://www.w3.org/2000/svg">
<path d="M5.36721 2.00395C5.32649 1.88591 5.24997 1.78352 5.1483 1.71104C5.04662 1.63856 4.92487 1.59961 4.80001 1.59961C4.67515 1.59961 4.5534 1.63856 4.45173 1.71104C4.35006 1.78352 4.27353 1.88591 4.23281 2.00395L2.43281 7.20395C2.38083 7.35438 2.39074 7.5193 2.46035 7.66242C2.52996 7.80555 2.65358 7.91516 2.80401 7.96715C2.95444 8.01913 3.11936 8.00922 3.26249 7.93961C3.40562 7.87 3.51523 7.74638 3.56721 7.59595L3.84241 6.79995H5.75761L6.03281 7.59595C6.08479 7.74638 6.19441 7.87 6.33753 7.93961C6.48066 8.00922 6.64558 8.01913 6.79601 7.96715C6.94644 7.91516 7.07006 7.80555 7.13968 7.66242C7.20929 7.5193 7.21919 7.35438 7.16721 7.20395L5.36721 2.00395ZM4.80001 4.03435L5.34241 5.59995H4.25841L4.80001 4.03435ZM3.20001 8.79995C3.04088 8.79995 2.88827 8.86316 2.77575 8.97568C2.66323 9.0882 2.60001 9.24082 2.60001 9.39995C2.60001 9.55908 2.66323 9.71169 2.77575 9.82421C2.88827 9.93673 3.04088 9.99995 3.20001 9.99995H5.22161L2.71521 13.4471C2.65017 13.5366 2.61112 13.6423 2.6024 13.7526C2.59367 13.8629 2.61561 13.9734 2.66577 14.072C2.71594 14.1706 2.79239 14.2534 2.88667 14.3113C2.98095 14.3692 3.08939 14.3999 3.20001 14.3999H6.40001C6.55914 14.3999 6.71175 14.3367 6.82428 14.2242C6.9368 14.1117 7.00001 13.9591 7.00001 13.7999C7.00001 13.6408 6.9368 13.4882 6.82428 13.3757C6.71175 13.2632 6.55914 13.1999 6.40001 13.1999H4.37841L6.88561 9.75275C6.9507 9.66321 6.98975 9.55742 6.99844 9.44707C7.00714 9.33672 6.98513 9.22612 6.93487 9.1275C6.88461 9.02888 6.80804 8.94608 6.71365 8.88827C6.61925 8.83046 6.5107 8.79989 6.40001 8.79995H3.20001ZM11.4 1.59995C11.5591 1.59995 11.7118 1.66316 11.8243 1.77568C11.9368 1.8882 12 2.04082 12 2.19995V12.2575L13.1576 10.9943C13.2652 10.877 13.415 10.8072 13.574 10.8003C13.733 10.7934 13.8883 10.85 14.0056 10.9575C14.1229 11.0651 14.1927 11.2149 14.1996 11.3739C14.2065 11.533 14.15 11.6882 14.0424 11.8055L11.8424 14.2055C11.7862 14.2669 11.7178 14.3159 11.6417 14.3494C11.5655 14.3829 11.4832 14.4002 11.4 14.4002C11.3168 14.4002 11.2345 14.3829 11.1583 14.3494C11.0822 14.3159 11.0138 14.2669 10.9576 14.2055L8.75761 11.8055C8.65004 11.6882 8.59348 11.533 8.60038 11.3739C8.60729 11.2149 8.67708 11.0651 8.79441 10.9575C8.91174 10.85 9.067 10.7934 9.22603 10.8003C9.38506 10.8072 9.53484 10.877 9.64241 10.9943L10.8 12.2575V2.19995C10.8 2.04082 10.8632 1.8882 10.9757 1.77568C11.0883 1.66316 11.2409 1.59995 11.4 1.59995Z" fill="#868686"/>
</svg>
