<svg width="16" height="16" viewBox="0 0 16 16" fill="none" xmlns="http://www.w3.org/2000/svg">
<path d="M13.8927 4.34806H8.25667C7.60233 4.31206 6.27967 2.93539 5.52733 2.93539H2.22667V2.93506C2.03435 2.93471 1.84977 3.01074 1.71351 3.14644C1.57724 3.28215 1.50044 3.46641 1.5 3.65873V6.09439H14.5V4.95506C14.4999 4.79404 14.4359 4.63965 14.322 4.52583C14.2081 4.412 14.0537 4.34806 13.8927 4.34806ZM14.5 6.09439H1.5V12.3387C1.49983 12.434 1.51844 12.5284 1.55477 12.6166C1.5911 12.7047 1.64444 12.7848 1.71174 12.8522C1.77904 12.9197 1.85898 12.9733 1.94699 13.0099C2.035 13.0464 2.12936 13.0653 2.22467 13.0654H13.773C13.8683 13.0656 13.9627 13.0471 14.0508 13.0108C14.1389 12.9745 14.219 12.9212 14.2865 12.854C14.354 12.7868 14.4076 12.7069 14.4442 12.6189C14.4809 12.531 14.4998 12.4367 14.5 12.3414V6.09439Z" fill="#868686" stroke="white" stroke-width="0.7" stroke-linecap="round" stroke-linejoin="round"/>
<path d="M9.95933 11.0649V8.10407L12.5236 9.58447L9.95933 11.0649Z" fill="#868686" stroke="white" stroke-width="0.6" stroke-linecap="round" stroke-linejoin="round"/>
</svg>
