<svg width="16" height="16" viewBox="0 0 16 16" fill="none" xmlns="http://www.w3.org/2000/svg">
<path d="M12.9403 4.94016L9.72033 1.72016C9.47366 1.4735 9.13366 1.3335 8.78033 1.3335H4.00033C3.26699 1.3335 2.67366 1.9335 2.67366 2.66683L2.66699 13.3335C2.66699 14.0668 3.26033 14.6668 3.99366 14.6668H12.0003C12.7337 14.6668 13.3337 14.0668 13.3337 13.3335V5.88683C13.3337 5.5335 13.1937 5.1935 12.9403 4.94016ZM8.00033 12.0002C6.90033 12.0002 5.87366 11.4602 5.25366 10.5535C5.17894 10.4446 5.15033 10.3106 5.17406 10.1807C5.19779 10.0508 5.27194 9.93558 5.38033 9.86016C5.60699 9.70016 5.92033 9.76016 6.07366 9.98683C6.50699 10.6202 7.22699 11.0002 7.99366 11.0002C9.28033 11.0002 10.327 9.9535 10.327 8.66683C10.3278 8.14428 10.153 7.63661 9.83057 7.2254C9.50814 6.81418 9.05685 6.52329 8.54918 6.39945C8.04152 6.27561 7.50696 6.32601 7.0314 6.54257C6.55583 6.75912 6.16687 7.12926 5.92699 7.5935L7.00033 8.66683H4.66699C4.48033 8.66683 4.33366 8.52016 4.33366 8.3335V6.00016L5.20033 6.86683C5.5006 6.39655 5.91455 6.00953 6.40393 5.74154C6.89332 5.47354 7.44236 5.3332 8.00033 5.3335C9.84033 5.3335 11.3337 6.82683 11.3337 8.66683C11.3337 10.5068 9.84033 12.0002 8.00033 12.0002Z" fill="#868686"/>
</svg>
