<svg width="18" height="18" viewBox="0 0 18 18" fill="none" xmlns="http://www.w3.org/2000/svg">
<path d="M9 13.5C5.63287 13.5 1.5 10.5696 1.5 9C1.5 7.43043 5.63287 4.5 9 4.5C12.3671 4.5 16.5 7.43043 16.5 9C16.5 10.5696 12.3671 13.5 9 13.5ZM2.94436 9.34675C3.30435 9.74549 3.79899 10.1821 4.35988 10.5798C5.78967 11.5936 7.4063 12.2081 9 12.2081C10.5937 12.2081 12.2103 11.5936 13.6401 10.5798C14.201 10.1821 14.6956 9.74549 15.0556 9.34675C15.1718 9.21808 15.2679 9.09971 15.3389 9C15.2679 8.90029 15.1718 8.78192 15.0556 8.65325C14.6956 8.25451 14.201 7.81789 13.6401 7.42019C12.2103 6.40639 10.5937 5.79192 9 5.79192C7.4063 5.79192 5.78967 6.40639 4.35988 7.42019C3.79899 7.81789 3.30435 8.25451 2.94436 8.65325C2.8282 8.78192 2.73214 8.90029 2.66114 9C2.73214 9.09971 2.8282 9.21808 2.94436 9.34675ZM9 11.625C7.55025 11.625 6.375 10.4497 6.375 9C6.375 7.55025 7.55025 6.375 9 6.375C10.4497 6.375 11.625 7.55025 11.625 9C11.625 10.4497 10.4497 11.625 9 11.625ZM9 10.275C9.70416 10.275 10.275 9.70416 10.275 9C10.275 8.29584 9.70416 7.725 9 7.725C8.29584 7.725 7.725 8.29584 7.725 9C7.725 9.70416 8.29584 10.275 9 10.275Z" fill="#1C2E45" fill-opacity="0.6"/>
</svg>
